<svg width="24" height="24" viewBox="0 0 24 24" fill="none" xmlns="http://www.w3.org/2000/svg">
<g clip-path="url(#clip0_4138_1061)">
<path d="M6.34881 15.7969H19.591C20.341 15.7969 20.9816 15.5312 21.5129 15C22.0441 14.4688 22.3097 13.8281 22.3097 13.0781V7.52344C22.3097 7.52344 22.3097 7.51953 22.3097 7.51172C22.3097 7.50391 22.3097 7.5 22.3097 7.5C22.3097 7.48438 22.3097 7.47656 22.3097 7.47656C22.3097 7.47656 22.3097 7.46875 22.3097 7.45312C22.3097 7.45312 22.3097 7.44922 22.3097 7.44141C22.3097 7.43359 22.3097 7.42969 22.3097 7.42969C22.3097 7.42969 22.3058 7.42578 22.298 7.41797C22.2902 7.41016 22.2863 7.39844 22.2863 7.38281C22.2863 7.38281 22.2863 7.37891 22.2863 7.37109C22.2863 7.36328 22.2863 7.35938 22.2863 7.35938C22.2863 7.35938 22.2863 7.35547 22.2863 7.34766C22.2863 7.33984 22.2863 7.33594 22.2863 7.33594C22.2863 7.32031 22.2824 7.3125 22.2746 7.3125C22.2668 7.3125 22.2629 7.30469 22.2629 7.28906C22.2629 7.28906 22.2629 7.28516 22.2629 7.27734C22.2629 7.26953 22.2629 7.26562 22.2629 7.26562C22.2629 7.26562 22.259 7.26172 22.2511 7.25391C22.2433 7.24609 22.2394 7.24219 22.2394 7.24219C22.2394 7.22656 22.2394 7.21875 22.2394 7.21875C22.2238 7.20312 22.216 7.19531 22.216 7.19531C22.216 7.19531 22.216 7.1875 22.216 7.17188C22.216 7.17188 22.2082 7.16406 22.1926 7.14844C22.1926 7.14844 22.1926 7.14453 22.1926 7.13672C22.1926 7.12891 22.1926 7.125 22.1926 7.125C22.1769 7.125 22.1691 7.12109 22.1691 7.11328C22.1691 7.10547 22.1691 7.10156 22.1691 7.10156C22.1691 7.10156 22.1652 7.09766 22.1574 7.08984C22.1496 7.08203 22.1457 7.07812 22.1457 7.07812C22.1457 7.07812 22.1418 7.07422 22.134 7.06641C22.1261 7.05859 22.1222 7.05469 22.1222 7.05469C22.1222 7.05469 22.1183 7.05078 22.1105 7.04297C22.1027 7.03516 22.0988 7.03125 22.0988 7.03125C22.0988 7.03125 22.0949 7.02734 22.0871 7.01953C22.0793 7.01172 22.0754 7.00781 22.0754 7.00781C22.0754 7.00781 22.0715 7.00391 22.0636 6.99609C22.0558 6.98828 22.0519 6.98438 22.0519 6.98438C22.0519 6.98438 22.048 6.98047 22.0402 6.97266C22.0324 6.96484 22.0285 6.96094 22.0285 6.96094C22.0129 6.96094 22.0051 6.96094 22.0051 6.96094C21.9894 6.96094 21.9816 6.95703 21.9816 6.94922C21.9816 6.94141 21.9738 6.9375 21.9582 6.9375C21.9582 6.9375 21.9582 6.93359 21.9582 6.92578C21.9582 6.91797 21.9504 6.91406 21.9347 6.91406C21.9347 6.91406 21.9308 6.91406 21.923 6.91406C21.9152 6.91406 21.9113 6.91406 21.9113 6.91406C21.9113 6.89844 21.9074 6.89062 21.8996 6.89062C21.8918 6.89062 21.8879 6.89062 21.8879 6.89062C21.8722 6.89062 21.8644 6.89062 21.8644 6.89062C21.8644 6.89062 21.8566 6.89062 21.841 6.89062C21.841 6.875 21.8371 6.86719 21.8293 6.86719C21.8215 6.86719 21.8176 6.86719 21.8176 6.86719C21.8176 6.86719 21.8136 6.86719 21.8058 6.86719C21.798 6.86719 21.7941 6.86719 21.7941 6.86719C21.7941 6.86719 21.7902 6.86719 21.7824 6.86719C21.7746 6.86719 21.7629 6.86719 21.7472 6.86719C21.7472 6.86719 21.7472 6.86328 21.7472 6.85547C21.7472 6.84766 21.7394 6.84375 21.7238 6.84375L4.96599 4.54688V2.20312C4.96599 2.1875 4.96599 2.17578 4.96599 2.16797C4.96599 2.16016 4.96599 2.14844 4.96599 2.13281C4.96599 2.13281 4.96599 2.125 4.96599 2.10938C4.96599 2.10938 4.96599 2.10547 4.96599 2.09766C4.96599 2.08984 4.96599 2.07812 4.96599 2.0625C4.95037 2.0625 4.94256 2.05859 4.94256 2.05078C4.94256 2.04297 4.94256 2.03906 4.94256 2.03906C4.94256 2.02344 4.94256 2.01562 4.94256 2.01562C4.94256 2 4.94256 1.98828 4.94256 1.98047C4.94256 1.97266 4.93474 1.96875 4.91912 1.96875C4.91912 1.96875 4.91912 1.96484 4.91912 1.95703C4.91912 1.94922 4.91912 1.94531 4.91912 1.94531C4.91912 1.92969 4.91912 1.92188 4.91912 1.92188C4.91912 1.92188 4.91131 1.91406 4.89568 1.89844C4.89568 1.89844 4.89568 1.89453 4.89568 1.88672C4.89568 1.87891 4.89568 1.875 4.89568 1.875C4.89568 1.875 4.89177 1.87109 4.88396 1.86328C4.87615 1.85547 4.87224 1.85156 4.87224 1.85156C4.87224 1.85156 4.87224 1.84766 4.87224 1.83984C4.87224 1.83203 4.86443 1.82812 4.84881 1.82812C4.84881 1.82812 4.84881 1.82422 4.84881 1.81641C4.84881 1.80859 4.84881 1.80469 4.84881 1.80469C4.84881 1.80469 4.8449 1.80078 4.83709 1.79297C4.82927 1.78516 4.82537 1.78125 4.82537 1.78125C4.82537 1.78125 4.82146 1.77734 4.81365 1.76953C4.80584 1.76172 4.80193 1.75781 4.80193 1.75781C4.80193 1.75781 4.79802 1.75391 4.79021 1.74609C4.7824 1.73828 4.77849 1.73438 4.77849 1.73438C4.77849 1.73438 4.77849 1.73047 4.77849 1.72266C4.77849 1.71484 4.77068 1.71094 4.75506 1.71094C4.75506 1.71094 4.75115 1.70703 4.74334 1.69922C4.73552 1.69141 4.73162 1.6875 4.73162 1.6875C4.73162 1.6875 4.72771 1.68359 4.7199 1.67578C4.71209 1.66797 4.70818 1.66406 4.70818 1.66406C4.70818 1.66406 4.70427 1.66406 4.69646 1.66406C4.68865 1.66406 4.68474 1.65625 4.68474 1.64062C4.66912 1.64062 4.6574 1.63672 4.64959 1.62891C4.64177 1.62109 4.63787 1.61719 4.63787 1.61719C4.62224 1.60156 4.60662 1.59375 4.59099 1.59375C4.57537 1.59375 4.56756 1.58594 4.56756 1.57031L0.934743 0.046875C0.762868 -0.015625 0.590993 -0.0117188 0.419118 0.0585938C0.247243 0.128906 0.122243 0.242188 0.0441176 0.398438C-0.0183824 0.570312 -0.0144761 0.742188 0.0558364 0.914062C0.126149 1.08594 0.247243 1.21094 0.419118 1.28906L3.63006 2.64844V17.2266C3.63006 17.9141 3.86052 18.5156 4.32146 19.0312C4.7824 19.5469 5.34099 19.8438 5.99724 19.9219C5.88787 20.125 5.79802 20.3438 5.72771 20.5781C5.6574 20.8125 5.62224 21.0547 5.62224 21.3047C5.62224 22.0547 5.88396 22.6914 6.4074 23.2148C6.93084 23.7383 7.56756 24 8.31756 24C9.05193 24 9.68084 23.7383 10.2043 23.2148C10.7277 22.6914 10.9894 22.0547 10.9894 21.3047C10.9894 21.0703 10.9582 20.8359 10.8957 20.6016C10.8332 20.3672 10.7472 20.1484 10.6379 19.9453H16.6144C16.5051 20.1484 16.4152 20.3672 16.3449 20.6016C16.2746 20.8359 16.2394 21.0703 16.2394 21.3047C16.2394 22.0547 16.5051 22.6914 17.0363 23.2148C17.5676 23.7383 18.2004 24 18.9347 24C19.6691 24 20.3019 23.7383 20.8332 23.2148C21.3644 22.6914 21.6301 22.0547 21.6301 21.3047C21.6301 20.5703 21.3644 19.9414 20.8332 19.418C20.3019 18.8945 19.6691 18.6328 18.9347 18.6328H6.34881C5.97381 18.6328 5.64959 18.4961 5.37615 18.2227C5.10271 17.9492 4.96599 17.6172 4.96599 17.2266V15.4219C5.16912 15.5469 5.38787 15.6406 5.62224 15.7031C5.85662 15.7656 6.0988 15.7969 6.34881 15.7969ZM9.67693 21.3047C9.67693 21.6797 9.54412 22 9.27849 22.2656C9.01287 22.5312 8.69256 22.6641 8.31756 22.6641C7.94256 22.6641 7.62224 22.5312 7.35662 22.2656C7.09099 22 6.95818 21.6797 6.95818 21.3047C6.95818 20.9297 7.09099 20.6094 7.35662 20.3438C7.62224 20.0781 7.94256 19.9453 8.31756 19.9453C8.69256 19.9453 9.01287 20.0781 9.27849 20.3438C9.54412 20.6094 9.67693 20.9297 9.67693 21.3047ZM20.2941 21.3047C20.2941 21.6797 20.1613 22 19.8957 22.2656C19.6301 22.5312 19.3097 22.6641 18.9347 22.6641C18.5597 22.6641 18.2394 22.5312 17.9738 22.2656C17.7082 22 17.5754 21.6797 17.5754 21.3047C17.5754 20.9297 17.7082 20.6094 17.9738 20.3438C18.2394 20.0781 18.5597 19.9453 18.9347 19.9453C19.3097 19.9453 19.6301 20.0781 19.8957 20.3438C20.1613 20.6094 20.2941 20.9297 20.2941 21.3047ZM19.591 14.4609H6.34881C5.97381 14.4609 5.64959 14.3281 5.37615 14.0625C5.10271 13.7969 4.96599 13.4688 4.96599 13.0781V5.88281L20.9738 8.08594V13.0781C20.9738 13.4688 20.8371 13.7969 20.5636 14.0625C20.2902 14.3281 19.966 14.4609 19.591 14.4609Z" fill="#1F1E17"/>
</g>
<defs>
<clipPath id="clip0_4138_1061">
<rect width="24" height="24" fill="white" transform="matrix(1 0 0 -1 0 24)"/>
</clipPath>
</defs>
</svg>
