<svg width="30" height="30" viewBox="0 0 30 30" fill="none" xmlns="http://www.w3.org/2000/svg">
<g clip-path="url(#clip0_4138_1015)">
<path d="M28.8579 23.4668L22.9693 17.5781C22.6372 17.2461 22.2222 17.0801 21.7242 17.0801C21.2261 17.0801 20.8013 17.2461 20.4497 17.5781L18.897 19.1309C18.6626 19.3652 18.5064 19.6436 18.4283 19.9658C18.3501 20.2881 18.3599 20.5957 18.4576 20.8887L17.8716 21.4746C17.6763 21.6699 17.0074 21.5527 15.8648 21.123C14.7222 20.6934 13.3794 19.707 11.8365 18.1641C10.2935 16.6211 9.30716 15.2783 8.87748 14.1357C8.44779 12.9932 8.3306 12.3242 8.52591 12.1289L9.11185 11.543C9.18998 11.5625 9.27298 11.582 9.36087 11.6016C9.44876 11.6211 9.53177 11.6309 9.6099 11.6309C9.84427 11.6309 10.0689 11.5869 10.2837 11.499C10.4986 11.4111 10.6939 11.2793 10.8697 11.1035L12.4224 9.55078C12.7544 9.19922 12.9204 8.77441 12.9204 8.27637C12.9204 7.77832 12.7544 7.36328 12.4224 7.03125L6.53373 1.14258C6.35794 0.966797 6.16263 0.834961 5.94779 0.74707C5.73294 0.65918 5.49857 0.615234 5.24466 0.615234C5.01029 0.615234 4.78568 0.65918 4.57084 0.74707C4.35599 0.834961 4.16068 0.966797 3.9849 1.14258L2.46146 2.66602C2.22709 2.90039 2.07084 3.17871 1.99271 3.50098C1.91458 3.82324 1.91458 4.14062 1.99271 4.45312C1.99271 4.45312 1.9097 4.53613 1.74369 4.70215C1.57767 4.86816 1.49466 4.95117 1.49466 4.95117C0.674351 5.86914 0.190952 7.0166 0.044468 8.39355C-0.102016 9.77051 0.0981789 11.3086 0.645054 13.0078C0.89896 13.8477 1.23099 14.6973 1.64115 15.5566C2.0513 16.3965 2.52982 17.2363 3.07669 18.0762C3.62357 18.916 4.22904 19.7461 4.8931 20.5664C5.55716 21.3867 6.27005 22.1875 7.03177 22.9688C7.81302 23.7305 8.6138 24.4434 9.43412 25.1074C10.2544 25.7715 11.0845 26.377 11.9244 26.9238C12.7642 27.4707 13.604 27.9492 14.4439 28.3594C15.3033 28.7695 16.1529 29.1016 16.9927 29.3555C17.6568 29.5703 18.3013 29.7314 18.9263 29.8389C19.5513 29.9463 20.147 30 20.7134 30C21.6509 30 22.5005 29.8584 23.2622 29.5752C24.024 29.292 24.6783 28.877 25.2251 28.3301L25.5474 28.0078C25.6451 28.0273 25.7329 28.042 25.8111 28.0518C25.8892 28.0615 25.9673 28.0664 26.0454 28.0664C26.2994 28.0664 26.5337 28.0225 26.7486 27.9346C26.9634 27.8467 27.1587 27.7148 27.3345 27.5391L28.8579 26.0156C29.2095 25.6641 29.3853 25.2393 29.3853 24.7412C29.3853 24.2432 29.2095 23.8184 28.8579 23.4668ZM5.24466 2.40234L11.1333 8.29102L9.6099 9.81445L3.72123 3.92578L5.24466 2.40234ZM23.9654 27.041C23.3208 27.6855 22.4419 28.0615 21.3286 28.1689C20.2154 28.2764 18.9458 28.1055 17.5201 27.6562C16.7583 27.4023 15.9869 27.0898 15.2056 26.7188C14.4244 26.3281 13.6431 25.8838 12.8619 25.3857C12.0806 24.8877 11.3091 24.3262 10.5474 23.7012C9.78568 23.0762 9.04349 22.4023 8.32084 21.6797C7.59818 20.957 6.92435 20.2148 6.29935 19.4531C5.67435 18.6914 5.11283 17.9199 4.61478 17.1387C4.11673 16.3574 3.6724 15.5762 3.28177 14.7949C2.91068 14.0137 2.59818 13.2422 2.34427 12.4805C1.89505 11.0547 1.72416 9.78516 1.83158 8.67188C1.939 7.55859 2.31498 6.67969 2.95951 6.03516L3.10599 5.85938L7.6763 10.4297L7.26615 10.8398C6.83646 11.2891 6.62162 11.8457 6.62162 12.5098C6.64115 13.1738 6.81693 13.8965 7.14896 14.6777C7.48099 15.459 7.94974 16.2695 8.55521 17.1094C9.16068 17.9297 9.82474 18.7109 10.5474 19.4531C11.6607 20.5469 12.8472 21.4746 14.107 22.2363C15.3667 22.998 16.4947 23.3789 17.4908 23.3789C17.8033 23.3789 18.1011 23.3252 18.3843 23.2178C18.6675 23.1104 18.9263 22.9492 19.1607 22.7344L19.5708 22.3242L24.1411 26.8945L23.9654 27.041ZM26.0747 26.2793L20.1861 20.3906L21.7095 18.8672L27.5982 24.7559C27.5982 24.7559 27.3443 25.0098 26.8365 25.5176C26.3286 26.0254 26.0747 26.2793 26.0747 26.2793ZM22.7935 7.20703C21.9341 6.36719 20.9527 5.71777 19.8492 5.25879C18.7456 4.7998 17.5884 4.57031 16.3775 4.57031C16.1236 4.57031 15.9087 4.6582 15.7329 4.83398C15.5572 5.00977 15.4693 5.21484 15.4693 5.44922C15.4693 5.70312 15.5572 5.91797 15.7329 6.09375C15.9087 6.26953 16.1236 6.35742 16.3775 6.35742C17.354 6.35742 18.2818 6.54297 19.1607 6.91406C20.0396 7.28516 20.8208 7.8125 21.5044 8.49609C22.188 9.17969 22.7154 9.96094 23.0865 10.8398C23.4576 11.7188 23.6431 12.6465 23.6431 13.623C23.6431 13.877 23.731 14.0918 23.9068 14.2676C24.0826 14.4434 24.2974 14.5312 24.5513 14.5312C24.7857 14.5312 24.9908 14.4434 25.1665 14.2676C25.3423 14.0918 25.4302 13.877 25.4302 13.623C25.4302 12.4121 25.2007 11.2549 24.7417 10.1514C24.2827 9.04785 23.6333 8.06641 22.7935 7.20703ZM26.0161 3.98438C25.3716 3.33984 24.6783 2.77344 23.9361 2.28516C23.1939 1.77734 22.4126 1.35742 21.5923 1.02539C20.772 0.693359 19.9224 0.439453 19.0435 0.263672C18.1841 0.0878906 17.2954 0 16.3775 0C16.1236 0 15.9087 0.0878906 15.7329 0.263672C15.5572 0.439453 15.4693 0.654297 15.4693 0.908203C15.4693 1.14258 15.5572 1.34766 15.7329 1.52344C15.9087 1.69922 16.1236 1.78711 16.3775 1.78711C17.9595 1.78711 19.4683 2.08496 20.9038 2.68066C22.3394 3.27637 23.6138 4.14062 24.7271 5.27344C25.8599 6.38672 26.7242 7.66113 27.3199 9.09668C27.9156 10.5322 28.2134 12.041 28.2134 13.623C28.2134 13.877 28.3013 14.0918 28.4771 14.2676C28.6529 14.4434 28.8579 14.5312 29.0923 14.5312C29.3462 14.5312 29.5611 14.4434 29.7369 14.2676C29.9126 14.0918 30.0005 13.877 30.0005 13.623C30.0005 12.7051 29.9126 11.8164 29.7369 10.957C29.5611 10.0781 29.3072 9.22852 28.9751 8.4082C28.6431 7.58789 28.2232 6.80664 27.7154 6.06445C27.2271 5.32227 26.6607 4.62891 26.0161 3.98438ZM19.5415 10.459C19.1119 10.0098 18.6285 9.67773 18.0913 9.46289C17.5542 9.24805 16.9829 9.14062 16.3775 9.14062C16.1236 9.14062 15.9087 9.22852 15.7329 9.4043C15.5572 9.58008 15.4693 9.78516 15.4693 10.0195C15.4693 10.2734 15.5572 10.4883 15.7329 10.6641C15.9087 10.8398 16.1236 10.9277 16.3775 10.9277C16.7486 10.9277 17.0952 10.9961 17.4175 11.1328C17.7398 11.2695 18.0279 11.4648 18.2818 11.7188C18.5357 11.9727 18.731 12.2607 18.8677 12.583C19.0044 12.9053 19.0728 13.252 19.0728 13.623C19.0728 13.877 19.1607 14.0918 19.3365 14.2676C19.5122 14.4434 19.7271 14.5312 19.981 14.5312C20.2154 14.5312 20.4204 14.4434 20.5962 14.2676C20.772 14.0918 20.8599 13.877 20.8599 13.623C20.8599 13.0176 20.7525 12.4463 20.5376 11.9092C20.3228 11.3721 19.9908 10.8887 19.5415 10.459Z" fill="#4BAF47"/>
</g>
<defs>
<clipPath id="clip0_4138_1015">
<rect width="30" height="30" fill="white" transform="matrix(1 0 0 -1 0 30)"/>
</clipPath>
</defs>
</svg>
