<svg width="50" height="50" viewBox="0 0 50 50" fill="none" xmlns="http://www.w3.org/2000/svg">
<path d="M9.76562 40.625C11.1654 40.625 12.3617 40.1286 13.3545 39.1357C14.3473 38.1429 14.8438 36.9466 14.8438 35.5469C14.8438 34.1471 14.3473 32.9508 13.3545 31.958C12.3617 30.9652 11.1654 30.4688 9.76562 30.4688C8.36589 30.4688 7.1696 30.9652 6.17676 31.958C5.18392 32.9508 4.6875 34.1471 4.6875 35.5469C4.6875 36.9466 5.18392 38.1429 6.17676 39.1357C7.1696 40.1286 8.36589 40.625 9.76562 40.625ZM9.76562 32.0312C10.7422 32.0312 11.5723 32.373 12.2559 33.0566C12.9395 33.7402 13.2812 34.5703 13.2812 35.5469C13.2812 36.5234 12.9395 37.3535 12.2559 38.0371C11.5723 38.7207 10.7422 39.0625 9.76562 39.0625C8.78906 39.0625 7.95898 38.7207 7.27539 38.0371C6.5918 37.3535 6.25 36.5234 6.25 35.5469C6.25 34.5703 6.5918 33.7402 7.27539 33.0566C7.95898 32.373 8.78906 32.0312 9.76562 32.0312ZM36.8164 41.4062C37.6953 41.4062 38.4521 41.0889 39.0869 40.4541C39.7217 39.8193 40.0391 39.0625 40.0391 38.1836C40.0391 37.3047 39.7217 36.5479 39.0869 35.9131C38.4521 35.2783 37.6953 34.9609 36.8164 34.9609C35.9375 34.9609 35.1807 35.2783 34.5459 35.9131C33.9111 36.5479 33.5938 37.3047 33.5938 38.1836C33.5938 39.0625 33.9111 39.8193 34.5459 40.4541C35.1807 41.0889 35.9375 41.4062 36.8164 41.4062ZM36.8164 36.5234C37.2721 36.5234 37.6628 36.6862 37.9883 37.0117C38.3138 37.3372 38.4766 37.7279 38.4766 38.1836C38.4766 38.6393 38.3138 39.0299 37.9883 39.3555C37.6628 39.681 37.2721 39.8438 36.8164 39.8438C36.3607 39.8438 35.9701 39.681 35.6445 39.3555C35.319 39.0299 35.1562 38.6393 35.1562 38.1836C35.1562 37.7279 35.319 37.3372 35.6445 37.0117C35.9701 36.6862 36.3607 36.5234 36.8164 36.5234ZM44.5312 33.5938H43.75V27.1973C43.75 25.9603 43.3024 24.8942 42.4072 23.999C41.512 23.1038 40.446 22.6562 39.209 22.6562H35.1562V19.5312C35.1562 19.3034 35.083 19.1162 34.9365 18.9697C34.79 18.8232 34.6029 18.75 34.375 18.75H33.5938V15.2832L35.5957 13.916C35.6934 13.8509 35.7747 13.7614 35.8398 13.6475C35.9049 13.5335 35.9375 13.4115 35.9375 13.2812C35.9375 13.0534 35.8643 12.8662 35.7178 12.7197C35.5713 12.5732 35.3841 12.5 35.1562 12.5C35.0586 12.5 34.9772 12.5081 34.9121 12.5244C34.847 12.5407 34.7819 12.5814 34.7168 12.6465L32.373 14.209C32.2754 14.2741 32.194 14.3636 32.1289 14.4775C32.0638 14.5915 32.0312 14.7135 32.0312 14.8438V18.75H31.25C31.0221 18.75 30.835 18.8232 30.6885 18.9697C30.542 19.1162 30.4688 19.3034 30.4688 19.5312V22.6562H28.7109L24.4629 8.54492C24.6257 8.47982 24.7559 8.38216 24.8535 8.25195C24.9512 8.12175 25 7.97526 25 7.8125V6.05469C25 5.46875 24.7884 4.96419 24.3652 4.54102C23.9421 4.11784 23.4375 3.90625 22.8516 3.90625H8.39844C7.8125 3.90625 7.30794 4.11784 6.88477 4.54102C6.46159 4.96419 6.25 5.46875 6.25 6.05469V7.8125C6.25 8.00781 6.30697 8.17057 6.4209 8.30078C6.53483 8.43099 6.67318 8.51237 6.83594 8.54492L3.95508 20.752L0.195312 25.293C0.130208 25.3581 0.0813802 25.4313 0.0488281 25.5127C0.016276 25.5941 0 25.6836 0 25.7812C0 26.0091 0.0732422 26.1963 0.219727 26.3428C0.366211 26.4893 0.553385 26.5625 0.78125 26.5625H4.6875C4.78516 26.5625 4.88281 26.5381 4.98047 26.4893C5.07812 26.4404 5.15951 26.3835 5.22461 26.3184L6.15234 25.4395L6.68945 26.3184C4.73633 26.9694 3.13314 28.1331 1.87988 29.8096C0.626628 31.486 0 33.3984 0 35.5469C0 36.9141 0.260417 38.1836 0.78125 39.3555C1.26953 40.5273 1.96126 41.5609 2.85645 42.4561C3.75163 43.3512 4.78516 44.043 5.95703 44.5312C7.12891 45.0521 8.39844 45.3125 9.76562 45.3125C11.9792 45.3125 13.9404 44.6533 15.6494 43.335C17.3584 42.0166 18.5059 40.3483 19.0918 38.3301L19.1406 38.2812H29.6875C29.7201 40.2344 30.4281 41.8945 31.8115 43.2617C33.195 44.6289 34.8633 45.3125 36.8164 45.3125C38.7695 45.3125 40.4378 44.6289 41.8213 43.2617C43.2048 41.8945 43.9128 40.2344 43.9453 38.2812H44.5312C45.1823 38.2812 45.7357 38.0534 46.1914 37.5977C46.6471 37.1419 46.875 36.5885 46.875 35.9375C46.875 35.2865 46.6471 34.7331 46.1914 34.2773C45.7357 33.8216 45.1823 33.5938 44.5312 33.5938ZM39.209 24.2188C40.0228 24.2188 40.7227 24.5117 41.3086 25.0977C41.8945 25.6836 42.1875 26.3835 42.1875 27.1973V33.5449C41.5365 32.7962 40.7471 32.194 39.8193 31.7383C38.8916 31.2826 37.8906 31.0547 36.8164 31.0547C36.5234 31.0547 36.2305 31.071 35.9375 31.1035C35.6445 31.1361 35.3678 31.2012 35.1074 31.2988L35.1562 31.25V24.2188H39.209ZM32.0312 20.3125H33.5938V31.8359C33.3008 31.9987 33.0241 32.1696 32.7637 32.3486C32.5033 32.5277 32.2591 32.7148 32.0312 32.9102V20.3125ZM27.0508 36.7188L25.3906 33.5938H27.3438V36.7188H27.0508ZM5.66406 20.3125L8.44727 8.59375H10.1562V20.3125H5.66406ZM11.7188 8.59375H13.2812V20.3125H11.7188V8.59375ZM14.8438 8.59375H22.8516L27.0508 22.6562H25.5859C25.5534 22.6562 25.5208 22.6562 25.4883 22.6562C25.4557 22.6562 25.4395 22.6562 25.4395 22.6562L24.3164 20.9961L24.707 20.752C24.8047 20.6868 24.8779 20.5973 24.9268 20.4834C24.9756 20.3695 25 20.2474 25 20.1172C25 19.8893 24.9268 19.7021 24.7803 19.5557C24.6338 19.4092 24.4466 19.3359 24.2188 19.3359C24.1211 19.3359 24.0316 19.3522 23.9502 19.3848C23.8688 19.4173 23.7956 19.4499 23.7305 19.4824L21.3867 21.2402C21.2891 21.3053 21.2158 21.3949 21.167 21.5088C21.1182 21.6227 21.0938 21.7448 21.0938 21.875C21.0938 22.1029 21.167 22.29 21.3135 22.4365C21.46 22.583 21.6471 22.6562 21.875 22.6562C21.9727 22.6562 22.0622 22.64 22.1436 22.6074C22.2249 22.5749 22.2982 22.5423 22.3633 22.5098L23.0957 21.9727L23.877 23.1934C23.5189 23.4538 23.2259 23.7956 22.998 24.2188C22.7702 24.6419 22.6562 25.0977 22.6562 25.5859V28.3691L18.6523 20.752C18.5872 20.6217 18.4977 20.516 18.3838 20.4346C18.2699 20.3532 18.1315 20.3125 17.9688 20.3125H14.8438V8.59375ZM25.5859 24.2188H27.3438V25.7812H24.2188V25.5859C24.2188 25.1953 24.349 24.8698 24.6094 24.6094C24.8698 24.349 25.1953 24.2188 25.5859 24.2188ZM24.2188 27.3438H27.3438V28.9062H24.2188V27.3438ZM24.2188 31.3477C24.2188 31.3151 24.2188 31.2907 24.2188 31.2744C24.2188 31.2581 24.2188 31.25 24.2188 31.25V30.4688H27.3438V32.0312H24.5605L24.2188 31.3477ZM7.8125 6.05469C7.8125 5.89193 7.86947 5.75358 7.9834 5.63965C8.09733 5.52571 8.23568 5.46875 8.39844 5.46875H22.8516C23.0143 5.46875 23.1527 5.52571 23.2666 5.63965C23.3805 5.75358 23.4375 5.89193 23.4375 6.05469V7.03125H7.8125V6.05469ZM1.66016 36.7676L3.61328 35.4492C3.74349 35.3516 3.84115 35.2458 3.90625 35.1318C3.97135 35.0179 4.00391 34.8958 4.00391 34.7656C4.00391 34.5703 3.92253 34.3913 3.75977 34.2285C3.59701 34.0658 3.41797 33.9844 3.22266 33.9844C3.125 33.9844 3.04362 34.0007 2.97852 34.0332C2.91341 34.0658 2.84831 34.0983 2.7832 34.1309L1.61133 34.9121C1.67643 34.0983 1.84733 33.3333 2.12402 32.6172C2.40072 31.901 2.76693 31.25 3.22266 30.6641H3.17383L5.51758 31.1523C5.55013 31.1523 5.57454 31.1523 5.59082 31.1523C5.6071 31.1523 5.63151 31.1523 5.66406 31.1523C5.89193 31.1523 6.0791 31.0791 6.22559 30.9326C6.37207 30.7861 6.44531 30.599 6.44531 30.3711C6.44531 30.1758 6.38835 30.0049 6.27441 29.8584C6.16048 29.7119 6.00586 29.6224 5.81055 29.5898L4.44336 29.3457C4.99674 28.8574 5.62337 28.4505 6.32324 28.125C7.02311 27.7995 7.7474 27.5716 8.49609 27.4414H8.54492L9.86328 29.4434C9.96094 29.541 10.0667 29.6224 10.1807 29.6875C10.2946 29.7526 10.4167 29.7852 10.5469 29.7852C10.7422 29.7852 10.9212 29.7119 11.084 29.5654C11.2467 29.4189 11.3281 29.2318 11.3281 29.0039C11.3281 28.9062 11.3118 28.8249 11.2793 28.7598C11.2467 28.6947 11.2142 28.6296 11.1816 28.5645L10.4004 27.3926C11.2142 27.4577 11.9792 27.6286 12.6953 27.9053C13.4115 28.182 14.0625 28.5482 14.6484 29.0039L14.1602 31.2988C14.1602 31.3314 14.1602 31.3639 14.1602 31.3965C14.1602 31.429 14.1602 31.4616 14.1602 31.4941C14.1602 31.6895 14.2334 31.8685 14.3799 32.0312C14.5264 32.194 14.7135 32.2754 14.9414 32.2754C15.1367 32.2754 15.3076 32.2103 15.4541 32.0801C15.6006 31.9499 15.6901 31.8034 15.7227 31.6406L15.9668 30.2246C16.4551 30.8105 16.862 31.4453 17.1875 32.1289C17.513 32.8125 17.7409 33.5449 17.8711 34.3262V34.375L15.8691 35.6934C15.7715 35.7585 15.6901 35.848 15.625 35.9619C15.5599 36.0758 15.5273 36.1979 15.5273 36.3281C15.5273 36.556 15.6006 36.7432 15.7471 36.8896C15.8936 37.0361 16.0807 37.1094 16.3086 37.1094C16.3737 37.1094 16.4469 37.1012 16.5283 37.085C16.6097 37.0687 16.6829 37.0443 16.748 37.0117L17.9199 36.1816C17.8548 36.9954 17.6839 37.7604 17.4072 38.4766C17.1305 39.1927 16.7643 39.86 16.3086 40.4785V40.4297L14.0137 39.9902C13.9811 39.9902 13.9486 39.9821 13.916 39.9658C13.8835 39.9495 13.8509 39.9414 13.8184 39.9414C13.623 39.9414 13.444 40.0228 13.2812 40.1855C13.1185 40.3483 13.0371 40.5273 13.0371 40.7227C13.0371 40.918 13.1022 41.0889 13.2324 41.2354C13.3626 41.3818 13.5091 41.4714 13.6719 41.5039L15.0879 41.7969C14.502 42.2852 13.8672 42.6839 13.1836 42.9932C12.5 43.3024 11.7676 43.5221 10.9863 43.6523H10.9375L9.61914 41.6992C9.55404 41.569 9.46452 41.4714 9.35059 41.4062C9.23665 41.3411 9.11458 41.3086 8.98438 41.3086C8.75651 41.3086 8.56934 41.39 8.42285 41.5527C8.27637 41.7155 8.20312 41.8945 8.20312 42.0898C8.20312 42.1875 8.21126 42.2689 8.22754 42.334C8.24382 42.3991 8.26823 42.4642 8.30078 42.5293L9.13086 43.7012C8.31706 43.6361 7.55208 43.4652 6.83594 43.1885C6.11979 42.9118 5.45247 42.5456 4.83398 42.0898L4.88281 42.1387L5.32227 39.7949C5.32227 39.7624 5.3304 39.738 5.34668 39.7217C5.36296 39.7054 5.37109 39.681 5.37109 39.6484C5.37109 39.4206 5.28971 39.2334 5.12695 39.0869C4.96419 38.9404 4.78516 38.8672 4.58984 38.8672C4.39453 38.8672 4.22363 38.9242 4.07715 39.0381C3.93066 39.152 3.84115 39.3066 3.80859 39.502L3.51562 40.8691C3.02734 40.3158 2.62858 39.6891 2.31934 38.9893C2.01009 38.2894 1.79036 37.5651 1.66016 36.8164V36.7676ZM9.76562 25.7812C9.50521 25.7812 9.25293 25.7975 9.00879 25.8301C8.76465 25.8626 8.51237 25.8952 8.25195 25.9277H8.30078L7.71484 25H15.918L22.1191 36.7188H19.4336C19.4661 36.556 19.4906 36.377 19.5068 36.1816C19.5231 35.9863 19.5312 35.7747 19.5312 35.5469C19.5312 34.2122 19.2708 32.9427 18.75 31.7383C18.2292 30.5664 17.5293 29.541 16.6504 28.6621C15.7715 27.7832 14.7461 27.0833 13.5742 26.5625C12.3698 26.0417 11.1003 25.7812 9.76562 25.7812ZM23.9258 36.7188L17.0898 23.877C17.0247 23.7467 16.9352 23.641 16.8213 23.5596C16.7074 23.4782 16.569 23.4375 16.4062 23.4375H6.25C6.15234 23.4375 6.05469 23.4619 5.95703 23.5107C5.85938 23.5596 5.77799 23.6165 5.71289 23.6816L4.3457 25H2.44141L5.0293 21.875H17.4805L25.293 36.7188H23.9258ZM28.9062 24.2188H30.4688V34.9609C30.3385 35.2214 30.2165 35.498 30.1025 35.791C29.9886 36.084 29.8991 36.377 29.834 36.6699V36.7188H28.9062V24.2188ZM31.3965 39.3555L32.373 38.6719C32.4707 38.5742 32.5521 38.4766 32.6172 38.3789C32.6823 38.2812 32.7148 38.1673 32.7148 38.0371C32.7148 37.8092 32.6416 37.6221 32.4951 37.4756C32.3486 37.3291 32.1615 37.2559 31.9336 37.2559C31.8685 37.2559 31.7952 37.264 31.7139 37.2803C31.6325 37.2965 31.5592 37.321 31.4941 37.3535L31.2988 37.5C31.3639 37.0768 31.4697 36.6699 31.6162 36.2793C31.7627 35.8887 31.9499 35.5143 32.1777 35.1562H32.1289L33.3496 35.4004C33.3822 35.4004 33.4066 35.4004 33.4229 35.4004C33.4391 35.4004 33.4635 35.4004 33.4961 35.4004C33.724 35.4004 33.9111 35.3271 34.0576 35.1807C34.2041 35.0342 34.2773 34.847 34.2773 34.6191C34.2773 34.4238 34.2122 34.2529 34.082 34.1064C33.9518 33.96 33.8053 33.8704 33.6426 33.8379L33.3984 33.7891C33.724 33.5612 34.0658 33.3577 34.4238 33.1787C34.7819 32.9997 35.1725 32.8613 35.5957 32.7637H35.6445L36.3281 33.7891C36.4258 33.8867 36.5234 33.9681 36.6211 34.0332C36.7188 34.0983 36.8327 34.1309 36.9629 34.1309C37.1908 34.1309 37.3779 34.0495 37.5244 33.8867C37.6709 33.724 37.7441 33.5449 37.7441 33.3496C37.7441 33.252 37.736 33.1624 37.7197 33.0811C37.7034 32.9997 37.679 32.9264 37.6465 32.8613L37.5 32.666C37.9232 32.7311 38.3301 32.8369 38.7207 32.9834C39.1113 33.1299 39.4857 33.3171 39.8438 33.5449L39.5996 34.7168C39.5996 34.7493 39.5996 34.7819 39.5996 34.8145C39.5996 34.847 39.5996 34.8633 39.5996 34.8633C39.5996 35.0911 39.6729 35.2783 39.8193 35.4248C39.9658 35.5713 40.153 35.6445 40.3809 35.6445C40.5762 35.6445 40.7471 35.5876 40.8936 35.4736C41.04 35.3597 41.1296 35.2051 41.1621 35.0098L41.2109 34.7656C41.4388 35.0911 41.6423 35.4411 41.8213 35.8154C42.0003 36.1898 42.1387 36.5723 42.2363 36.9629V37.0117L41.2109 37.7441C41.1133 37.8092 41.0319 37.8988 40.9668 38.0127C40.9017 38.1266 40.8691 38.2487 40.8691 38.3789C40.8691 38.5742 40.9505 38.7533 41.1133 38.916C41.276 39.0788 41.4551 39.1602 41.6504 39.1602C41.748 39.1602 41.8376 39.1439 41.9189 39.1113C42.0003 39.0788 42.0736 39.0462 42.1387 39.0137L42.334 38.8672C42.2689 39.3229 42.1631 39.7461 42.0166 40.1367C41.8701 40.5273 41.6829 40.8854 41.4551 41.2109L40.2832 40.9668C40.2507 40.9668 40.2262 40.9668 40.21 40.9668C40.1937 40.9668 40.1693 40.9668 40.1367 40.9668C39.9089 40.9668 39.7217 41.0482 39.5752 41.2109C39.4287 41.3737 39.3555 41.5527 39.3555 41.748C39.3555 41.9434 39.4124 42.1143 39.5264 42.2607C39.6403 42.4072 39.7949 42.4967 39.9902 42.5293L40.2344 42.5781C39.9089 42.806 39.5589 43.0094 39.1846 43.1885C38.8102 43.3675 38.4277 43.5059 38.0371 43.6035H37.9883L37.2559 42.627C37.1908 42.5293 37.1012 42.4479 36.9873 42.3828C36.8734 42.3177 36.7513 42.2852 36.6211 42.2852C36.4258 42.2852 36.2467 42.3584 36.084 42.5049C35.9212 42.6514 35.8398 42.8385 35.8398 43.0664C35.8398 43.1315 35.8561 43.2048 35.8887 43.2861C35.9212 43.3675 35.9538 43.4408 35.9863 43.5059L36.1328 43.7012C35.6771 43.6361 35.2539 43.5303 34.8633 43.3838C34.4727 43.2373 34.1146 43.0501 33.7891 42.8223V42.8711L34.0332 41.6504C34.0332 41.6178 34.0332 41.5934 34.0332 41.5771C34.0332 41.5609 34.0332 41.5365 34.0332 41.5039C34.0332 41.3086 33.9518 41.1296 33.7891 40.9668C33.6263 40.804 33.4473 40.7227 33.252 40.7227C33.0566 40.7227 32.8857 40.7878 32.7393 40.918C32.5928 41.0482 32.5033 41.1947 32.4707 41.3574L32.4219 41.6016C32.194 41.3086 31.9906 40.9749 31.8115 40.6006C31.6325 40.2262 31.4941 39.8275 31.3965 39.4043V39.3555ZM44.5312 36.7188H43.7988C43.7337 36.4258 43.6523 36.1491 43.5547 35.8887C43.457 35.6283 43.3431 35.3678 43.2129 35.1074L43.2617 35.1562H44.5312C44.7591 35.1562 44.9463 35.2295 45.0928 35.376C45.2393 35.5225 45.3125 35.7096 45.3125 35.9375C45.3125 36.1654 45.2393 36.3525 45.0928 36.499C44.9463 36.6455 44.7591 36.7188 44.5312 36.7188ZM37.5 28.9062C37.7279 28.9062 37.915 28.833 38.0615 28.6865C38.208 28.54 38.2812 28.3529 38.2812 28.125V26.5625C38.2812 26.3346 38.208 26.1475 38.0615 26.001C37.915 25.8545 37.7279 25.7812 37.5 25.7812C37.2721 25.7812 37.085 25.8545 36.9385 26.001C36.792 26.1475 36.7188 26.3346 36.7188 26.5625V28.125C36.7188 28.3529 36.792 28.54 36.9385 28.6865C37.085 28.833 37.2721 28.9062 37.5 28.9062ZM39.8438 28.9062C40.0716 28.9062 40.2588 28.833 40.4053 28.6865C40.5518 28.54 40.625 28.3529 40.625 28.125V26.5625C40.625 26.3346 40.5518 26.1475 40.4053 26.001C40.2588 25.8545 40.0716 25.7812 39.8438 25.7812C39.6159 25.7812 39.4287 25.8545 39.2822 26.001C39.1357 26.1475 39.0625 26.3346 39.0625 26.5625V28.125C39.0625 28.3529 39.1357 28.54 39.2822 28.6865C39.4287 28.833 39.6159 28.9062 39.8438 28.9062Z" fill="white"/>
</svg>
