<svg width="16" height="16" viewBox="0 0 16 16" fill="none" xmlns="http://www.w3.org/2000/svg">
<g clip-path="url(#clip0_4138_602)">
<path d="M13.6719 4.34375C14.0052 4.90625 14.2526 5.48958 14.4141 6.09375C14.5755 6.69792 14.6562 7.33333 14.6562 8C14.6562 8.66667 14.5755 9.30208 14.4141 9.90625C14.2526 10.5104 14.0052 11.0938 13.6719 11.6562C13.3281 12.2292 12.9375 12.7344 12.5 13.1719C12.0625 13.6094 11.5573 14 10.9844 14.3438C10.4219 14.6771 9.83854 14.9245 9.23438 15.0859C8.63021 15.2474 7.99479 15.3281 7.32812 15.3281C6.66146 15.3281 6.02604 15.2474 5.42188 15.0859C4.81771 14.9245 4.23438 14.6771 3.67188 14.3438C3.09896 14 2.59375 13.6094 2.15625 13.1719C1.71875 12.7344 1.32812 12.2292 0.984375 11.6562C0.661458 11.0938 0.416667 10.5104 0.25 9.90625C0.0833333 9.30208 0 8.66667 0 8C0 7.33333 0.0833333 6.69792 0.25 6.09375C0.416667 5.48958 0.661458 4.90625 0.984375 4.34375C1.31771 3.77083 1.70573 3.26562 2.14844 2.82812C2.59115 2.39062 3.09896 2 3.67188 1.65625C4.23438 1.32292 4.81771 1.07552 5.42188 0.914062C6.02604 0.752604 6.66146 0.671875 7.32812 0.671875C7.99479 0.671875 8.63021 0.752604 9.23438 0.914062C9.83854 1.07552 10.4219 1.32292 10.9844 1.65625C11.5573 2 12.0625 2.39062 12.5 2.82812C12.9375 3.26562 13.3281 3.77083 13.6719 4.34375ZM5.59375 9.73438L3.85938 8C3.73438 7.86458 3.56771 7.79688 3.35938 7.79688C3.15104 7.79688 2.96354 7.86458 2.79688 8C2.66146 8.13542 2.59375 8.30469 2.59375 8.50781C2.59375 8.71094 2.66146 8.90104 2.79688 9.07812L5.0625 11.3281C5.19792 11.4635 5.36458 11.5312 5.5625 11.5312C5.76042 11.5312 5.92708 11.4635 6.0625 11.3281L11.7969 5.79688C11.9323 5.66146 12 5.49219 12 5.28906C12 5.08594 11.9323 4.90104 11.7969 4.73438C11.6615 4.59896 11.4896 4.53125 11.2812 4.53125C11.0729 4.53125 10.8906 4.59896 10.7344 4.73438L5.59375 9.73438Z" fill="#C5CE38"/>
</g>
<defs>
<clipPath id="clip0_4138_602">
<rect width="16" height="16" fill="white" transform="matrix(1 0 0 -1 0 16)"/>
</clipPath>
</defs>
</svg>
