<svg width="30" height="30" viewBox="0 0 30 30" fill="none" xmlns="http://www.w3.org/2000/svg">
<g clip-path="url(#clip0_4138_1020)">
<path d="M29.9707 11.5723C29.9707 11.5527 29.9707 11.5283 29.9707 11.499C29.9707 11.4697 29.9609 11.4453 29.9414 11.4258C29.9219 11.3477 29.8877 11.2695 29.8389 11.1914C29.79 11.1133 29.7266 11.0449 29.6484 10.9863L25.3418 8.02734V4.80469C25.3418 4.58984 25.2686 4.40918 25.1221 4.2627C24.9756 4.11621 24.7949 4.04297 24.5801 4.04297H19.6582L15.4395 1.11328C15.3027 1.03516 15.1562 0.996094 15 0.996094C14.8438 0.996094 14.6973 1.03516 14.5605 1.11328L10.3418 4.04297H5.41992C5.20508 4.04297 5.02441 4.11621 4.87793 4.2627C4.73145 4.40918 4.6582 4.58984 4.6582 4.80469V7.96875L0.322266 10.957C0.224609 11.0352 0.146484 11.1279 0.0878906 11.2354C0.0292969 11.3428 0 11.4551 0 11.5723C0 11.5723 0 11.5771 0 11.5869C0 11.5967 0 11.6016 0 11.6016L0.0292969 28.2422C0.0292969 28.3398 0.0488281 28.4375 0.0878906 28.5352C0.126953 28.6328 0.175781 28.7207 0.234375 28.7988C0.3125 28.8574 0.400391 28.9062 0.498047 28.9453C0.595703 28.9844 0.693359 29.0039 0.791016 29.0039L29.2383 28.9746C29.4531 28.9746 29.6338 28.9014 29.7803 28.7549C29.9268 28.6084 30 28.4277 30 28.2129L29.9707 11.5723ZM25.3418 9.87305L27.8027 11.6016L25.3418 13.3008V9.87305ZM15 2.69531L16.9629 4.04297H13.0371L15 2.69531ZM6.18164 5.5957H23.8184V14.3555L17.9004 18.4863L15.4688 16.6113C15.332 16.5137 15.1758 16.46 15 16.4502C14.8242 16.4404 14.668 16.4941 14.5312 16.6113L12.0996 18.4863L6.18164 14.4141V5.5957ZM4.6582 9.84375V13.3301L2.10938 11.6016L4.6582 9.84375ZM1.55273 13.0664L10.8398 19.4824L1.55273 26.6895V13.0664ZM3.04688 27.4805L15 18.1934L26.9531 27.4512L3.04688 27.4805ZM19.1602 19.4824L28.4473 13.0078V26.6895L19.1602 19.4824ZM20.2148 8.64258H9.78516C9.58984 8.64258 9.41406 8.7207 9.25781 8.87695C9.10156 9.0332 9.02344 9.21875 9.02344 9.43359C9.02344 9.64844 9.10156 9.8291 9.25781 9.97559C9.41406 10.1221 9.58984 10.1953 9.78516 10.1953H20.2148C20.4102 10.1953 20.5859 10.1221 20.7422 9.97559C20.8984 9.8291 20.9766 9.64844 20.9766 9.43359C20.9766 9.21875 20.8984 9.0332 20.7422 8.87695C20.5859 8.7207 20.4102 8.64258 20.2148 8.64258ZM20.2148 12.6562H9.78516C9.58984 12.6562 9.41406 12.7295 9.25781 12.876C9.10156 13.0225 9.02344 13.2031 9.02344 13.418C9.02344 13.6328 9.10156 13.8135 9.25781 13.96C9.41406 14.1064 9.58984 14.1797 9.78516 14.1797H20.2148C20.4102 14.1797 20.5859 14.1064 20.7422 13.96C20.8984 13.8135 20.9766 13.6328 20.9766 13.418C20.9766 13.2031 20.8984 13.0225 20.7422 12.876C20.5859 12.7295 20.4102 12.6562 20.2148 12.6562Z" fill="#4BAF47"/>
</g>
<defs>
<clipPath id="clip0_4138_1020">
<rect width="30" height="30" fill="white" transform="matrix(1 0 0 -1 0 30)"/>
</clipPath>
</defs>
</svg>
