<svg width="14" height="14" viewBox="0 0 14 14" fill="none" xmlns="http://www.w3.org/2000/svg">
<path d="M13.5625 6.78125C13.5625 7.62891 13.4167 8.43099 13.125 9.1875C12.8333 9.94401 12.43 10.6185 11.915 11.2109C11.4001 11.8034 10.7962 12.3001 10.1035 12.7012C9.40169 13.0931 8.64974 13.3529 7.84766 13.4805V8.73633H9.41992L9.7207 6.78125H7.84766V5.50977C7.84766 5.23633 7.92513 4.99023 8.08008 4.77148C8.23503 4.55273 8.52214 4.44336 8.94141 4.44336H9.80273V2.77539C9.80273 2.77539 9.64323 2.75488 9.32422 2.71387C9.00521 2.67285 8.65885 2.65234 8.28516 2.65234C7.51042 2.65234 6.88835 2.87793 6.41895 3.3291C5.94954 3.78027 5.71484 4.43425 5.71484 5.29102V6.78125H3.99219V8.73633H5.71484V13.4805C4.91276 13.3529 4.16081 13.0931 3.45898 12.7012C2.76628 12.3001 2.16243 11.8034 1.64746 11.2109C1.13249 10.6185 0.729167 9.94401 0.4375 9.1875C0.145833 8.43099 0 7.62891 0 6.78125C0 5.84245 0.177734 4.96289 0.533203 4.14258C0.888672 3.32227 1.37402 2.60449 1.98926 1.98926C2.60449 1.37402 3.32227 0.888672 4.14258 0.533203C4.96289 0.177734 5.84245 0 6.78125 0C7.72005 0 8.59961 0.177734 9.41992 0.533203C10.2402 0.888672 10.958 1.37402 11.5732 1.98926C12.1885 2.60449 12.6738 3.32227 13.0293 4.14258C13.3848 4.96289 13.5625 5.84245 13.5625 6.78125Z" fill="white"/>
</svg>
