<svg width="14" height="14" viewBox="0 0 14 14" fill="none" xmlns="http://www.w3.org/2000/svg">
<g clip-path="url(#clip0_4138_1006)">
<path d="M13.5625 7C13.5625 7.84766 13.4167 8.64974 13.125 9.40625C12.8333 10.1628 12.43 10.8372 11.915 11.4297C11.4001 12.0221 10.7962 12.5189 10.1035 12.9199C9.40169 13.3118 8.64974 13.5716 7.84766 13.6992V8.95508H9.41992L9.7207 7H7.84766V5.72852C7.84766 5.45508 7.92513 5.20898 8.08008 4.99023C8.23503 4.77148 8.52214 4.66211 8.94141 4.66211H9.80273V2.99414C9.80273 2.99414 9.64323 2.97363 9.32422 2.93262C9.00521 2.8916 8.65885 2.87109 8.28516 2.87109C7.51042 2.87109 6.88835 3.09668 6.41895 3.54785C5.94954 3.99902 5.71484 4.653 5.71484 5.50977V7H3.99219V8.95508H5.71484V13.6992C4.91276 13.5716 4.16081 13.3118 3.45898 12.9199C2.76628 12.5189 2.16243 12.0221 1.64746 11.4297C1.13249 10.8372 0.729167 10.1628 0.4375 9.40625C0.145833 8.64974 0 7.84766 0 7C0 6.0612 0.177734 5.18164 0.533203 4.36133C0.888672 3.54102 1.37402 2.82324 1.98926 2.20801C2.60449 1.59277 3.32227 1.10742 4.14258 0.751953C4.96289 0.396484 5.84245 0.21875 6.78125 0.21875C7.72005 0.21875 8.59961 0.396484 9.41992 0.751953C10.2402 1.10742 10.958 1.59277 11.5732 2.20801C12.1885 2.82324 12.6738 3.54102 13.0293 4.36133C13.3848 5.18164 13.5625 6.0612 13.5625 7Z" fill="#1F1E17"/>
</g>
<defs>
<clipPath id="clip0_4138_1006">
<rect width="14" height="14" fill="white" transform="matrix(1 0 0 -1 0 14)"/>
</clipPath>
</defs>
</svg>
