<svg width="50" height="50" viewBox="0 0 50 50" fill="none" xmlns="http://www.w3.org/2000/svg">
<g clip-path="url(#clip0_4138_838)">
<path d="M40.918 48.4375C40.2018 47.9167 39.4368 47.4609 38.623 47.0703C37.8092 46.6797 36.9954 46.3379 36.1816 46.0449C34.6842 45.459 32.6986 44.8893 30.2246 44.3359C27.7507 43.7826 24.8047 43.4896 21.3867 43.457C21.4518 42.9688 21.5576 42.3991 21.7041 41.748C21.8506 41.097 22.0703 40.3809 22.3633 39.5996C22.6888 38.8509 23.055 38.1429 23.4619 37.4756C23.8688 36.8083 24.3327 36.1654 24.8535 35.5469C25.1139 35.6445 25.5371 35.7747 26.123 35.9375C26.709 36.1003 27.4251 36.1816 28.2715 36.1816C29.0202 36.1816 29.8421 36.0677 30.7373 35.8398C31.6325 35.612 32.5521 35.1725 33.4961 34.5215C35.7422 32.9915 36.9954 31.2988 37.2559 29.4434C37.5163 27.5879 37.6465 26.5951 37.6465 26.4648C37.6465 26.3346 37.6058 26.2207 37.5244 26.123C37.443 26.0254 37.3372 25.944 37.207 25.8789C37.1745 25.8789 37.0117 25.8138 36.7188 25.6836C36.4258 25.5534 36.0352 25.4395 35.5469 25.3418C35.9375 24.6908 36.2793 24.0234 36.5723 23.3398C36.8652 22.6562 37.1094 21.9401 37.3047 21.1914C37.4349 20.7357 37.264 20.4508 36.792 20.3369C36.32 20.223 36.0189 20.3939 35.8887 20.8496C35.6934 21.6309 35.4248 22.3796 35.083 23.0957C34.7412 23.8118 34.3424 24.4954 33.8867 25.1465C33.1055 25.1465 32.2266 25.2604 31.25 25.4883C30.2734 25.7161 29.2806 26.1882 28.2715 26.9043C27.5228 27.4251 26.8962 27.9948 26.3916 28.6133C25.887 29.2318 25.4883 29.8503 25.1953 30.4688C24.5443 30.5339 23.9502 30.5583 23.4131 30.542C22.876 30.5257 22.4284 30.5013 22.0703 30.4688C22.4284 29.9479 22.9329 29.2969 23.584 28.5156C24.235 27.7018 24.9919 26.8473 25.8545 25.9521C26.7171 25.057 27.653 24.1699 28.6621 23.291C29.6712 22.4447 30.7129 21.696 31.7871 21.0449C32.2103 20.8171 32.2998 20.4915 32.0557 20.0684C31.8115 19.6452 31.4779 19.5475 31.0547 19.7754C28.9388 21.0124 27.0101 22.5667 25.2686 24.4385C23.527 26.3102 22.2168 27.832 21.3379 29.0039C21.2728 27.8646 21.4437 26.3835 21.8506 24.5605C22.2575 22.7376 23.3073 20.9961 25 19.3359C26.0742 18.2292 27.2624 17.3584 28.5645 16.7236C29.8665 16.0889 31.25 15.6901 32.7148 15.5273C33.4961 15.4622 34.1797 15.4541 34.7656 15.5029C35.3516 15.5518 35.8073 15.5924 36.1328 15.625C36.1654 15.8203 36.1979 16.0726 36.2305 16.3818C36.263 16.6911 36.2793 17.041 36.2793 17.4316C36.2793 17.8874 36.5234 18.1152 37.0117 18.1152C37.5 18.1152 37.7441 17.8711 37.7441 17.3828C37.7441 16.6341 37.6953 16.0319 37.5977 15.5762C37.5 15.1204 37.4512 14.8763 37.4512 14.8438C37.4186 14.7135 37.3535 14.6077 37.2559 14.5264C37.1582 14.445 37.0605 14.3717 36.9629 14.3066C36.8978 14.3066 36.4665 14.2415 35.6689 14.1113C34.8714 13.9811 33.8542 13.9648 32.6172 14.0625C31.4779 14.1927 30.127 14.5508 28.5645 15.1367C27.002 15.7227 25.4557 16.7806 23.9258 18.3105C23.7956 18.4408 23.6735 18.5628 23.5596 18.6768C23.4456 18.7907 23.3398 18.9128 23.2422 19.043C23.4375 18.4245 23.6491 17.7734 23.877 17.0898C24.1048 16.4062 24.3327 15.7227 24.5605 15.0391C25.2116 14.8438 26.1963 14.3311 27.5146 13.501C28.833 12.6709 29.8503 11.2305 30.5664 9.17969C31.4453 6.60807 31.4453 4.50032 30.5664 2.85645C29.6875 1.21257 29.2155 0.341797 29.1504 0.244141C29.0527 0.146484 28.9469 0.0813789 28.833 0.0488281C28.7191 0.0162773 28.597 0 28.4668 0C28.3691 0.0325508 27.4658 0.415039 25.7568 1.14746C24.0479 1.87988 22.7376 3.54818 21.8262 6.15234C21.0775 8.30078 21.0205 10.1562 21.6553 11.7188C22.29 13.2812 22.7702 14.2741 23.0957 14.6973C22.9004 15.3483 22.6969 15.9912 22.4854 16.626C22.2738 17.2607 22.0703 17.8711 21.875 18.457C21.7448 17.4805 21.46 16.4225 21.0205 15.2832C20.5811 14.1439 19.9219 13.0208 19.043 11.9141C17.7083 10.2214 16.3005 8.99251 14.8193 8.22754C13.3382 7.46257 12.0443 6.94987 10.9375 6.68945C9.70052 6.42904 8.68327 6.32324 7.88574 6.37207C7.08822 6.4209 6.67318 6.44531 6.64062 6.44531C6.51042 6.47786 6.38835 6.53483 6.27441 6.61621C6.16048 6.69759 6.08724 6.78711 6.05469 6.88477C6.05469 6.91732 5.96517 7.22656 5.78613 7.8125C5.6071 8.39844 5.46875 9.16341 5.37109 10.1074C5.33854 10.5957 5.56641 10.8561 6.05469 10.8887C6.54297 10.9212 6.80339 10.7096 6.83594 10.2539C6.86849 9.70052 6.93359 9.22038 7.03125 8.81348C7.12891 8.40657 7.21029 8.08919 7.27539 7.86133C7.60091 7.82878 8.05664 7.82878 8.64258 7.86133C9.22852 7.89388 9.89583 7.99154 10.6445 8.1543C12.1094 8.47982 13.444 9.0332 14.6484 9.81445C15.8529 10.5957 16.9434 11.6048 17.9199 12.8418C18.7988 13.9811 19.4661 15.2181 19.9219 16.5527C20.3776 17.8874 20.5892 19.3034 20.5566 20.8008C20.5566 21.2891 20.5322 21.7367 20.4834 22.1436C20.4346 22.5505 20.3776 22.9167 20.3125 23.2422C18.8802 20.5404 17.3503 18.2699 15.7227 16.4307C14.0951 14.5915 13.2324 13.623 13.1348 13.5254C12.8092 13.1999 12.4756 13.208 12.1338 13.5498C11.792 13.8916 11.7839 14.2253 12.1094 14.5508C12.1094 14.5833 12.9395 15.5355 14.5996 17.4072C16.2598 19.279 17.7897 21.5495 19.1895 24.2188C18.8639 24.2188 18.4896 24.1943 18.0664 24.1455C17.6432 24.0967 17.1875 24.0234 16.6992 23.9258C15.2669 23.6003 13.9567 23.0632 12.7686 22.3145C11.5804 21.5658 10.5143 20.5892 9.57031 19.3848C8.91927 18.571 8.38216 17.7083 7.95898 16.7969C7.53581 15.8854 7.22656 14.9414 7.03125 13.9648C6.93359 13.4766 6.64876 13.2812 6.17676 13.3789C5.70475 13.4766 5.51758 13.7695 5.61523 14.2578C5.8431 15.332 6.19303 16.3818 6.66504 17.4072C7.13704 18.4326 7.73112 19.401 8.44727 20.3125C9.74935 21.9727 11.1328 23.1689 12.5977 23.9014C14.0625 24.6338 15.3483 25.1302 16.4551 25.3906C17.0085 25.4883 17.57 25.5697 18.1396 25.6348C18.7093 25.6999 19.2871 25.7161 19.873 25.6836V38.0371C19.7428 37.7767 19.6208 37.5326 19.5068 37.3047C19.3929 37.0768 19.2708 36.8652 19.1406 36.6699C19.1732 36.2467 19.0592 34.9935 18.7988 32.9102C18.5384 30.8268 17.2363 28.8574 14.8926 27.002C12.3535 24.9837 9.98535 24.1536 7.78809 24.5117C5.59082 24.8698 4.42708 25.0651 4.29688 25.0977C4.19922 25.1628 4.1097 25.2441 4.02832 25.3418C3.94694 25.4395 3.88997 25.5534 3.85742 25.6836C3.82487 25.7812 3.89811 26.945 4.07715 29.1748C4.25619 31.4046 5.63151 33.5286 8.20312 35.5469C9.375 36.4909 10.5632 37.1257 11.7676 37.4512C12.972 37.7767 14.0625 37.9395 15.0391 37.9395C15.6576 37.9395 16.2272 37.8988 16.748 37.8174C17.2689 37.736 17.6758 37.6465 17.9688 37.5488C18.4896 38.4603 18.9046 39.4043 19.2139 40.3809C19.5231 41.3574 19.7103 42.3828 19.7754 43.457C17.8874 43.4896 16.0645 43.6117 14.3066 43.8232C12.5488 44.0348 10.8724 44.3359 9.27734 44.7266C8.82161 44.8568 8.65072 45.1579 8.76465 45.6299C8.87858 46.1019 9.16341 46.2891 9.61914 46.1914C11.1816 45.8008 12.8174 45.4997 14.5264 45.2881C16.2354 45.0765 18.0176 44.9544 19.873 44.9219V46.582C19.873 47.0703 20.1172 47.3145 20.6055 47.3145C21.0938 47.3145 21.3379 47.0703 21.3379 46.582V44.9219C23.4863 44.9219 25.4395 45.0521 27.1973 45.3125C28.9876 45.5729 30.5827 45.8822 31.9824 46.2402C33.3822 46.5983 34.6029 46.9727 35.6445 47.3633C36.6862 47.7865 37.5488 48.1771 38.2324 48.5352H3.22266C3.58073 48.3398 3.98763 48.1364 4.44336 47.9248C4.89909 47.7132 5.41992 47.5098 6.00586 47.3145C6.42904 47.1517 6.55924 46.8424 6.39648 46.3867C6.23372 45.931 5.92448 45.7845 5.46875 45.9473C4.55729 46.2728 3.77604 46.6064 3.125 46.9482C2.47396 47.29 1.95312 47.5749 1.5625 47.8027C0.78125 48.2585 0.325521 48.584 0.195312 48.7793C0.0651042 48.9746 0 49.1374 0 49.2676C0 49.4629 0.0732422 49.6338 0.219727 49.7803C0.366211 49.9268 0.537109 50 0.732422 50H40.7715C41.3574 50 41.5934 49.7884 41.4795 49.3652C41.3656 48.9421 41.1784 48.6328 40.918 48.4375ZM29.1016 28.125C30.6315 27.0508 32.0638 26.5544 33.3984 26.6357C34.7331 26.7171 35.6608 26.8555 36.1816 27.0508C36.1491 27.6042 35.9375 28.5238 35.5469 29.8096C35.1562 31.0954 34.196 32.2591 32.666 33.3008C31.2988 34.2773 29.9967 34.7493 28.7598 34.7168C27.5228 34.6842 26.5951 34.5703 25.9766 34.375C26.6927 33.724 27.4902 33.1136 28.3691 32.5439C29.248 31.9743 30.2083 31.4779 31.25 31.0547C31.6732 30.8594 31.7871 30.5339 31.5918 30.0781C31.3965 29.6224 31.0872 29.4922 30.6641 29.6875C29.7201 30.0781 28.8656 30.5094 28.1006 30.9814C27.3356 31.4535 26.6439 31.9499 26.0254 32.4707C26.1882 31.7871 26.5055 31.0465 26.9775 30.249C27.4495 29.4515 28.1576 28.7435 29.1016 28.125ZM23.584 32.0312C23.7467 32.0312 23.9176 32.0231 24.0967 32.0068C24.2757 31.9906 24.4466 31.9824 24.6094 31.9824C24.4792 32.4056 24.3896 32.7962 24.3408 33.1543C24.292 33.5124 24.2676 33.8216 24.2676 34.082C23.5514 34.7982 22.9574 35.5306 22.4854 36.2793C22.0133 37.028 21.6309 37.7441 21.3379 38.4277V31.8359C21.5658 31.8685 21.875 31.9092 22.2656 31.958C22.6562 32.0068 23.0957 32.0312 23.584 32.0312ZM23.1934 6.64062C23.8118 4.85026 24.6826 3.597 25.8057 2.88086C26.9287 2.16471 27.7507 1.72526 28.2715 1.5625C28.597 2.01823 28.9795 2.88086 29.4189 4.15039C29.8584 5.41992 29.7689 6.93359 29.1504 8.69141C28.6947 10.026 28.0762 11.0433 27.2949 11.7432C26.5137 12.443 25.7975 12.9395 25.1465 13.2324C25.6348 11.8327 26.0986 10.5062 26.5381 9.25293C26.9775 7.99968 27.3763 6.94987 27.7344 6.10352C27.8971 5.68034 27.7507 5.37109 27.2949 5.17578C26.8392 4.98047 26.5299 5.11068 26.3672 5.56641C26.0091 6.41276 25.6022 7.48698 25.1465 8.78906C24.6908 10.0911 24.2188 11.4746 23.7305 12.9395C23.3724 12.2884 23.0794 11.4176 22.8516 10.3271C22.6237 9.23665 22.7376 8.00781 23.1934 6.64062ZM9.08203 34.4238C8.17057 33.6751 7.41374 32.8369 6.81152 31.9092C6.20931 30.9814 5.77799 29.9642 5.51758 28.8574C5.38737 28.304 5.31413 27.8076 5.29785 27.3682C5.28158 26.9287 5.27344 26.5788 5.27344 26.3184C5.89193 26.1556 7.04753 26.0579 8.74023 26.0254C10.4329 25.9928 12.1908 26.6927 14.0137 28.125C14.9251 28.8411 15.6657 29.6631 16.2354 30.5908C16.805 31.5186 17.2201 32.5358 17.4805 33.6426C17.513 33.8053 17.5456 33.96 17.5781 34.1064C17.6107 34.2529 17.627 34.3913 17.627 34.5215C17.3991 34.2285 17.1631 33.9518 16.9189 33.6914C16.6748 33.431 16.4225 33.1868 16.1621 32.959C14.9251 31.7871 13.7777 30.9326 12.7197 30.3955C11.6618 29.8584 11.1003 29.5898 11.0352 29.5898C10.612 29.3945 10.3109 29.5247 10.1318 29.9805C9.9528 30.4362 10.0749 30.7617 10.498 30.957C10.5306 30.957 11.027 31.2012 11.9873 31.6895C12.9476 32.1777 14.0137 32.959 15.1855 34.0332C15.5436 34.3913 15.8854 34.7575 16.2109 35.1318C16.5365 35.5062 16.8457 35.8887 17.1387 36.2793C16.3249 36.4421 15.1693 36.4746 13.6719 36.377C12.1745 36.2793 10.6445 35.6283 9.08203 34.4238Z" fill="white"/>
</g>
<defs>
<clipPath id="clip0_4138_838">
<rect width="50" height="50" fill="white" transform="matrix(1 0 0 -1 0 50)"/>
</clipPath>
</defs>
</svg>
