<svg width="14" height="14" viewBox="0 0 14 14" fill="none" xmlns="http://www.w3.org/2000/svg">
<g clip-path="url(#clip0_4140_617)">
<path d="M6.125 3.85547C6.5625 3.85547 6.97266 3.9375 7.35547 4.10156C7.73828 4.26562 8.07096 4.48893 8.35352 4.77148C8.63607 5.05404 8.85938 5.38672 9.02344 5.76953C9.1875 6.15234 9.26953 6.5625 9.26953 7C9.26953 7.42839 9.1875 7.83398 9.02344 8.2168C8.85938 8.59961 8.63607 8.93457 8.35352 9.22168C8.07096 9.50879 7.73828 9.73438 7.35547 9.89844C6.97266 10.0625 6.5625 10.1445 6.125 10.1445C5.69661 10.1445 5.29102 10.0625 4.9082 9.89844C4.52539 9.73438 4.19043 9.50879 3.90332 9.22168C3.61621 8.93457 3.39062 8.59961 3.22656 8.2168C3.0625 7.83398 2.98047 7.42839 2.98047 7C2.98047 6.5625 3.0625 6.15234 3.22656 5.76953C3.39062 5.38672 3.61621 5.05404 3.90332 4.77148C4.19043 4.48893 4.52539 4.26562 4.9082 4.10156C5.29102 3.9375 5.69661 3.85547 6.125 3.85547ZM6.125 9.03711C6.6901 9.03711 7.17318 8.83887 7.57422 8.44238C7.97526 8.0459 8.17578 7.5651 8.17578 7C8.17578 6.4349 7.97526 5.95182 7.57422 5.55078C7.17318 5.14974 6.6901 4.94922 6.125 4.94922C5.5599 4.94922 5.0791 5.14974 4.68262 5.55078C4.28613 5.95182 4.08789 6.4349 4.08789 7C4.08789 7.5651 4.28841 8.0459 4.68945 8.44238C5.09049 8.83887 5.56901 9.03711 6.125 9.03711ZM10.1309 3.73242C10.1309 3.93294 10.0602 4.10384 9.91895 4.24512C9.77767 4.38639 9.60221 4.45703 9.39258 4.45703C9.19206 4.45703 9.02116 4.38639 8.87988 4.24512C8.73861 4.10384 8.66797 3.93294 8.66797 3.73242C8.66797 3.52279 8.73861 3.34733 8.87988 3.20605C9.02116 3.06478 9.19206 2.99414 9.39258 2.99414C9.60221 2.99414 9.77767 3.06478 9.91895 3.20605C10.0602 3.34733 10.1309 3.52279 10.1309 3.73242ZM12.209 4.4707C12.2272 4.72591 12.2409 5.08594 12.25 5.55078C12.25 6.00651 12.25 6.4873 12.25 6.99316C12.25 7.49902 12.25 7.98438 12.25 8.44922C12.2409 8.91406 12.2272 9.27409 12.209 9.5293C12.1908 10.0124 12.111 10.4704 11.9697 10.9033C11.8285 11.3363 11.5801 11.7305 11.2246 12.0859C10.8691 12.4505 10.4749 12.7012 10.042 12.8379C9.60905 12.9746 9.14648 13.0566 8.6543 13.084C8.39909 13.0931 8.03906 13.1022 7.57422 13.1113C7.11849 13.1204 6.6377 13.125 6.13184 13.125C5.62598 13.125 5.14062 13.1204 4.67578 13.1113C4.21094 13.1022 3.85091 13.0931 3.5957 13.084C3.10352 13.0566 2.64323 12.9746 2.21484 12.8379C1.78646 12.7012 1.38997 12.4505 1.02539 12.0859C0.669922 11.7305 0.423828 11.3363 0.287109 10.9033C0.150391 10.4704 0.0683594 10.0124 0.0410156 9.5293C0.0227865 9.27409 0.0136719 8.91406 0.0136719 8.44922C0.00455729 7.98438 0 7.49902 0 6.99316C0 6.4873 0.00455729 6.00195 0.0136719 5.53711C0.0136719 5.08138 0.0227865 4.72591 0.0410156 4.4707C0.0683594 3.97852 0.150391 3.51595 0.287109 3.08301C0.423828 2.65007 0.669922 2.25586 1.02539 1.90039C1.38997 1.54492 1.78874 1.29655 2.22168 1.15527C2.65462 1.014 3.11263 0.934245 3.5957 0.916016C3.85091 0.897786 4.21094 0.884114 4.67578 0.875C5.14062 0.875 5.62598 0.875 6.13184 0.875C6.6377 0.875 7.11849 0.875 7.57422 0.875C8.03906 0.884114 8.39909 0.897786 8.6543 0.916016C9.14648 0.943359 9.60905 1.02539 10.042 1.16211C10.4749 1.29883 10.8691 1.54492 11.2246 1.90039C11.5801 2.26497 11.8285 2.66146 11.9697 3.08984C12.111 3.51823 12.1908 3.97852 12.209 4.4707ZM10.9102 10.6094C10.9831 10.4089 11.0378 10.1491 11.0742 9.83008C11.1107 9.51107 11.1357 9.17839 11.1494 8.83203C11.1631 8.48568 11.1654 8.14844 11.1562 7.82031C11.1562 7.49219 11.1562 7.21875 11.1562 7C11.1562 6.77214 11.1562 6.49414 11.1562 6.16602C11.1654 5.83789 11.1631 5.50065 11.1494 5.1543C11.1357 4.80794 11.1107 4.47982 11.0742 4.16992C11.0378 3.85091 10.9831 3.59115 10.9102 3.39062C10.8008 3.11719 10.6458 2.88021 10.4453 2.67969C10.2448 2.47917 10.0078 2.32422 9.73438 2.21484C9.53385 2.14193 9.27409 2.08724 8.95508 2.05078C8.64518 2.01432 8.31706 1.98926 7.9707 1.97559C7.62435 1.96191 7.28711 1.95964 6.95898 1.96875C6.63086 1.96875 6.35286 1.96875 6.125 1.96875C5.90625 1.96875 5.63281 1.96875 5.30469 1.96875C4.97656 1.95964 4.63932 1.96191 4.29297 1.97559C3.94661 1.98926 3.61393 2.01432 3.29492 2.05078C2.97591 2.08724 2.71615 2.14193 2.51562 2.21484C2.24219 2.32422 2.00521 2.47917 1.80469 2.67969C1.60417 2.88021 1.45378 3.11719 1.35352 3.39062C1.27148 3.59115 1.21224 3.85091 1.17578 4.16992C1.13932 4.47982 1.11654 4.80794 1.10742 5.1543C1.09831 5.50065 1.09375 5.83789 1.09375 6.16602C1.10286 6.49414 1.10742 6.77214 1.10742 7C1.10742 7.21875 1.10286 7.49219 1.09375 7.82031C1.09375 8.14844 1.09831 8.48568 1.10742 8.83203C1.11654 9.17839 1.13932 9.51107 1.17578 9.83008C1.21224 10.1491 1.27148 10.4089 1.35352 10.6094C1.46289 10.8828 1.61784 11.1175 1.81836 11.3135C2.01888 11.5094 2.2513 11.6621 2.51562 11.7715C2.71615 11.8535 2.97591 11.9128 3.29492 11.9492C3.61393 11.9857 3.94661 12.0085 4.29297 12.0176C4.63932 12.0267 4.97656 12.0312 5.30469 12.0312C5.63281 12.0221 5.90625 12.0176 6.125 12.0176C6.35286 12.0176 6.63086 12.0221 6.95898 12.0312C7.28711 12.0312 7.62435 12.0267 7.9707 12.0176C8.31706 12.0085 8.64518 11.9857 8.95508 11.9492C9.27409 11.9128 9.53385 11.8535 9.73438 11.7715C10.0078 11.6621 10.2448 11.5072 10.4453 11.3066C10.6458 11.1061 10.8008 10.8737 10.9102 10.6094Z" fill="white"/>
</g>
<defs>
<clipPath id="clip0_4140_617">
<rect width="14" height="14" fill="white" transform="matrix(1 0 0 -1 0 14)"/>
</clipPath>
</defs>
</svg>
