<svg width="48" height="48" viewBox="0 0 48 48" fill="none" xmlns="http://www.w3.org/2000/svg">
<g clip-path="url(#clip0_4138_1025)">
<path d="M12.3912 37.3125C12.235 37.3125 12.0944 37.2656 11.9694 37.1719C11.8444 37.0781 11.7506 36.9688 11.6881 36.8438C11.1881 35.4375 10.5006 34.1484 9.62562 32.9766C8.75062 31.8047 7.82874 30.6406 6.85999 29.4844C5.98499 28.4219 5.11781 27.3281 4.25843 26.2031C3.39906 25.0781 2.67249 23.8594 2.07874 22.5469C2.01624 22.3594 2.02406 22.1641 2.10218 21.9609C2.18031 21.7578 2.31312 21.625 2.50062 21.5625C2.68812 21.4688 2.87562 21.4609 3.06312 21.5391C3.25062 21.6172 3.39124 21.75 3.48499 21.9375C4.01624 23.1562 4.68031 24.2891 5.47718 25.3359C6.27406 26.3828 7.10999 27.4375 7.98499 28.5C8.98499 29.6875 9.94593 30.9062 10.8678 32.1562C11.7897 33.4062 12.5319 34.7969 13.0944 36.3281C13.1569 36.5156 13.1491 36.7031 13.0709 36.8906C12.9928 37.0781 12.86 37.2031 12.6725 37.2656C12.61 37.2969 12.5553 37.3125 12.5084 37.3125C12.4616 37.3125 12.4225 37.3125 12.3912 37.3125ZM12.3912 37.3125C12.36 37.3125 12.3209 37.3125 12.2741 37.3125C12.2272 37.3125 12.1881 37.2969 12.1569 37.2656C11.9381 37.2031 11.7897 37.0781 11.7116 36.8906C11.6334 36.7031 11.6256 36.5156 11.6881 36.3281C12.2506 34.7969 12.9928 33.4062 13.9147 32.1562C14.8366 30.9062 15.7975 29.6875 16.7975 28.5C17.6725 27.4375 18.5084 26.3828 19.3053 25.3359C20.1022 24.2891 20.7662 23.1562 21.2975 21.9375C21.3912 21.75 21.5319 21.6172 21.7194 21.5391C21.9069 21.4609 22.11 21.4688 22.3287 21.5625C22.5162 21.625 22.6412 21.7578 22.7037 21.9609C22.7662 22.1641 22.7662 22.3594 22.7037 22.5469C22.11 23.8594 21.3912 25.0781 20.5475 26.2031C19.7037 27.3281 18.8287 28.4219 17.9225 29.4844C16.9537 30.6406 16.0319 31.8047 15.1569 32.9766C14.2819 34.1484 13.5944 35.4375 13.0944 36.8438C13.0319 36.9688 12.9381 37.0781 12.8131 37.1719C12.6881 37.2656 12.5475 37.3125 12.3912 37.3125ZM12.3912 24C10.7662 24 9.35999 23.4062 8.17249 22.2188C6.98499 21.0312 6.39124 19.625 6.39124 18C6.39124 16.375 6.98499 14.9688 8.17249 13.7812C9.35999 12.5938 10.7662 12 12.3912 12C14.0162 12 15.4225 12.5938 16.61 13.7812C17.7975 14.9688 18.3912 16.375 18.3912 18C18.3912 19.625 17.7975 21.0312 16.61 22.2188C15.4225 23.4062 14.0162 24 12.3912 24ZM12.3912 13.5C11.1725 13.5 10.1178 13.9453 9.22718 14.8359C8.33656 15.7266 7.89124 16.7812 7.89124 18C7.89124 19.2188 8.33656 20.2734 9.22718 21.1641C10.1178 22.0547 11.1725 22.5 12.3912 22.5C13.61 22.5 14.6647 22.0547 15.5553 21.1641C16.4459 20.2734 16.8912 19.2188 16.8912 18C16.8912 16.7812 16.4459 15.7266 15.5553 14.8359C14.6647 13.9453 13.61 13.5 12.3912 13.5ZM22.0006 22.9688C21.9381 22.9688 21.8834 22.9688 21.8366 22.9688C21.7897 22.9688 21.7506 22.9531 21.7194 22.9219C21.5319 22.8281 21.3991 22.6875 21.3209 22.5C21.2428 22.3125 21.235 22.125 21.2975 21.9375C21.9225 20.5 22.1881 19.0156 22.0944 17.4844C22.0006 15.9531 21.5631 14.5 20.7819 13.125C19.9694 11.75 18.9147 10.6406 17.6178 9.79688C16.3209 8.95312 14.9069 8.45312 13.3756 8.29688C11.8756 8.14062 10.4069 8.33594 8.96937 8.88281C7.53187 9.42969 6.29749 10.2656 5.26624 11.3906C3.95374 12.7969 3.13343 14.4688 2.80531 16.4062C2.47718 18.3438 2.70374 20.1875 3.48499 21.9375C3.54749 22.125 3.54749 22.3125 3.48499 22.5C3.42249 22.6875 3.29749 22.8281 3.10999 22.9219C2.89124 23.0156 2.68812 23.0234 2.50062 22.9453C2.31312 22.8672 2.17249 22.7344 2.07874 22.5469C1.20374 20.5156 0.953744 18.3828 1.32874 16.1484C1.70374 13.9141 2.64124 11.9844 4.14124 10.3594C5.32874 9.07812 6.75062 8.125 8.40687 7.5C10.0631 6.875 11.7662 6.64062 13.5162 6.79688C15.2975 6.98438 16.9381 7.5625 18.4381 8.53125C19.9381 9.5 21.1412 10.7812 22.0475 12.375C22.985 13.9688 23.5084 15.6484 23.6178 17.4141C23.7272 19.1797 23.4225 20.8906 22.7037 22.5469C22.6412 22.6719 22.5475 22.7734 22.4225 22.8516C22.2975 22.9297 22.1569 22.9688 22.0006 22.9688ZM12.4381 41.25C11.1569 41.25 9.76624 41.1719 8.26624 41.0156C6.76624 40.8594 5.31312 40.5312 3.90687 40.0312C3.34437 39.8438 2.47718 39.4219 1.30531 38.7656C0.133431 38.1094 -0.249381 37.1562 0.156869 35.9062C0.250619 35.5625 0.438119 35.2344 0.719369 34.9219C1.00062 34.6094 1.35999 34.3281 1.79749 34.0781C2.48499 33.6406 3.20374 33.3047 3.95374 33.0703C4.70374 32.8359 5.40687 32.6406 6.06312 32.4844C6.25062 32.4531 6.43812 32.4922 6.62562 32.6016C6.81312 32.7109 6.92249 32.8594 6.95374 33.0469C7.01624 33.2656 6.99281 33.4609 6.88343 33.6328C6.77406 33.8047 6.60999 33.9062 6.39124 33.9375C5.64124 34.125 4.95374 34.3203 4.32874 34.5234C3.70374 34.7266 3.12562 35 2.59437 35.3438C2.31312 35.5 2.08656 35.6641 1.91468 35.8359C1.74281 36.0078 1.62562 36.1875 1.56312 36.375C1.46937 36.75 1.65687 37.125 2.12562 37.5C2.59437 37.875 3.35999 38.25 4.42249 38.625C5.89124 39.1562 7.42249 39.4766 9.01624 39.5859C10.61 39.6953 12.0475 39.75 13.3287 39.75C15.11 39.7188 16.6881 39.5703 18.0631 39.3047C19.4381 39.0391 20.6412 38.6406 21.6725 38.1094C21.985 37.9531 22.36 37.7031 22.7975 37.3594C23.235 37.0156 23.36 36.6406 23.1725 36.2344C22.8287 35.5469 22.1725 35.0469 21.2037 34.7344C20.235 34.4219 19.3756 34.1875 18.6256 34.0312L18.3912 33.9375C18.2037 33.9062 18.0475 33.8047 17.9225 33.6328C17.7975 33.4609 17.7662 33.2656 17.8287 33.0469C17.86 32.8594 17.9694 32.7109 18.1569 32.6016C18.3444 32.4922 18.5319 32.4531 18.7194 32.4844L18.9537 32.5312C19.86 32.75 20.8834 33.0625 22.0241 33.4688C23.1647 33.875 23.985 34.5625 24.485 35.5312C24.8287 36.25 24.8131 36.9531 24.4381 37.6406C24.0631 38.3281 23.3756 38.9219 22.3756 39.4219C21.2194 40.0156 19.8991 40.4609 18.4147 40.7578C16.9303 41.0547 15.2506 41.2188 13.3756 41.25C13.2194 41.25 13.0631 41.25 12.9069 41.25C12.7506 41.25 12.5944 41.25 12.4381 41.25Z" fill="#4BAF47"/>
</g>
<defs>
<clipPath id="clip0_4138_1025">
<rect width="48" height="48" fill="white" transform="matrix(1 0 0 -1 0 48)"/>
</clipPath>
</defs>
</svg>
