<svg width="50" height="50" viewBox="0 0 50 50" fill="none" xmlns="http://www.w3.org/2000/svg">
<path d="M7.27539 32.5684C7.60091 32.8939 7.96712 33.1462 8.37402 33.3252C8.78092 33.5042 9.22852 33.5938 9.7168 33.5938H10.5957C11.084 33.5938 11.5316 33.5042 11.9385 33.3252C12.3454 33.1462 12.7116 32.8939 13.0371 32.5684C13.3626 32.2428 13.6149 31.8766 13.7939 31.4697C13.973 31.0628 14.0625 30.6152 14.0625 30.127C14.0625 29.4108 13.9811 28.7028 13.8184 28.0029C13.6556 27.3031 13.4115 26.6276 13.0859 25.9766L10.8398 21.5332C10.7096 21.2728 10.4818 21.1426 10.1562 21.1426C9.83073 21.1426 9.60286 21.2728 9.47266 21.5332L7.22656 25.9766C6.90104 26.6276 6.6569 27.3031 6.49414 28.0029C6.33138 28.7028 6.25 29.4108 6.25 30.127C6.25 30.6152 6.33952 31.0628 6.51855 31.4697C6.69759 31.8766 6.94987 32.2428 7.27539 32.5684ZM8.64258 26.6602L10.1562 23.6328L11.6699 26.6602C11.9303 27.2135 12.1338 27.7832 12.2803 28.3691C12.4268 28.9551 12.5 29.541 12.5 30.127C12.5 30.3874 12.4512 30.6315 12.3535 30.8594C12.2559 31.0872 12.1257 31.2988 11.9629 31.4941C11.7676 31.6569 11.556 31.7871 11.3281 31.8848C11.1003 31.9824 10.8561 32.0312 10.5957 32.0312H9.7168C9.45638 32.0312 9.21224 31.9824 8.98438 31.8848C8.75651 31.7871 8.54492 31.6569 8.34961 31.4941C8.18685 31.2988 8.05664 31.0872 7.95898 30.8594C7.86133 30.6315 7.8125 30.3874 7.8125 30.127C7.8125 29.541 7.88574 28.9551 8.03223 28.3691C8.17871 27.7832 8.38216 27.2135 8.64258 26.6602ZM34.375 33.5938H35.9375V41.4062H34.375V33.5938ZM34.375 42.9688H35.9375V44.5312H34.375V42.9688ZM46.0938 41.4062H39.0625V21.875C39.0625 21.6471 38.9893 21.46 38.8428 21.3135C38.6963 21.167 38.5091 21.0938 38.2812 21.0938H26.5625V9.375C26.5625 9.27734 26.5462 9.17969 26.5137 9.08203C26.4811 8.98438 26.416 8.903 26.3184 8.83789L23.4375 5.9082V1.5625C23.4375 1.33464 23.3643 1.14746 23.2178 1.00098C23.0713 0.854492 22.8841 0.78125 22.6562 0.78125H3.90625C3.67839 0.78125 3.49121 0.854492 3.34473 1.00098C3.19824 1.14746 3.125 1.33464 3.125 1.5625V5.9082L0.244141 8.83789C0.146484 8.903 0.0813802 8.98438 0.0488281 9.08203C0.016276 9.17969 0 9.27734 0 9.375V45.3125C0 45.5404 0.0732422 45.7275 0.219727 45.874C0.366211 46.0205 0.553385 46.0938 0.78125 46.0938H21.9727C22.1354 46.9727 22.5749 47.7132 23.291 48.3154C24.0072 48.9176 24.8372 49.2188 25.7812 49.2188H41.4062C42.0573 49.2188 42.6107 48.9909 43.0664 48.5352C43.5221 48.0794 43.75 47.526 43.75 46.875C43.75 46.6471 43.8232 46.46 43.9697 46.3135C44.1162 46.167 44.3034 46.0938 44.5312 46.0938H46.0938C46.7448 46.0938 47.2982 45.8659 47.7539 45.4102C48.2096 44.9544 48.4375 44.401 48.4375 43.75C48.4375 43.099 48.2096 42.5456 47.7539 42.0898C47.2982 41.6341 46.7448 41.4062 46.0938 41.4062ZM37.5 29.4922C37.207 29.2969 36.9059 29.1504 36.5967 29.0527C36.2874 28.9551 35.9538 28.9062 35.5957 28.9062H34.7168C34.2285 28.9062 33.7809 28.9958 33.374 29.1748C32.9671 29.3538 32.6009 29.6061 32.2754 29.9316C32.0801 30.0944 31.8685 30.2246 31.6406 30.3223C31.4128 30.4199 31.1686 30.4688 30.9082 30.4688H30.0293C29.7689 30.4688 29.5247 30.4199 29.2969 30.3223C29.069 30.2246 28.8574 30.0944 28.6621 29.9316C28.3366 29.6061 27.9704 29.3538 27.5635 29.1748C27.1566 28.9958 26.709 28.9062 26.2207 28.9062H25.3418C24.9837 28.9062 24.6501 28.9551 24.3408 29.0527C24.0316 29.1504 23.7305 29.2969 23.4375 29.4922V22.6562H37.5V29.4922ZM25 21.0938H22.6562C22.4284 21.0938 22.2412 21.167 22.0947 21.3135C21.9482 21.46 21.875 21.6471 21.875 21.875V44.5312H20.3125V9.7168L22.6562 7.37305L25 9.7168V21.0938ZM4.24805 7.03125H20.752L19.1895 8.59375H2.68555L4.24805 7.03125ZM18.75 10.1562V16.4062H1.5625V10.1562H18.75ZM18.75 17.9688V36.7188H1.5625V17.9688H18.75ZM4.6875 2.34375H21.875V5.46875H4.6875V2.34375ZM1.5625 44.5312V38.2812H18.75V44.5312H1.5625ZM25.7812 47.6562C25.1302 47.6562 24.5768 47.4284 24.1211 46.9727C23.6654 46.5169 23.4375 45.9635 23.4375 45.3125V31.5918L23.9746 31.0059C24.1699 30.8431 24.3815 30.7129 24.6094 30.6152C24.8372 30.5176 25.0814 30.4688 25.3418 30.4688H26.2207C26.4811 30.4688 26.7253 30.5176 26.9531 30.6152C27.181 30.7129 27.3926 30.8431 27.5879 31.0059C27.9134 31.3314 28.2796 31.5837 28.6865 31.7627C29.0934 31.9417 29.541 32.0312 30.0293 32.0312H30.9082C31.3965 32.0312 31.8441 31.9417 32.251 31.7627C32.6579 31.5837 33.0241 31.3314 33.3496 31.0059C33.5449 30.8431 33.7565 30.7129 33.9844 30.6152C34.2122 30.5176 34.4564 30.4688 34.7168 30.4688H35.5957C35.8561 30.4688 36.1003 30.5176 36.3281 30.6152C36.556 30.7129 36.7676 30.8431 36.9629 31.0059L37.5 31.5918V45.3125C37.5 45.9635 37.2721 46.5169 36.8164 46.9727C36.3607 47.4284 35.8073 47.6562 35.1562 47.6562H25.7812ZM46.0938 44.5312H44.5312C43.8802 44.5312 43.3268 44.7591 42.8711 45.2148C42.4154 45.6706 42.1875 46.224 42.1875 46.875C42.1875 47.1029 42.1143 47.29 41.9678 47.4365C41.8213 47.583 41.6341 47.6562 41.4062 47.6562H38.2812C38.5091 47.3307 38.6963 46.9727 38.8428 46.582C38.9893 46.1914 39.0625 45.7682 39.0625 45.3125V42.9688H46.0938C46.3216 42.9688 46.5088 43.042 46.6553 43.1885C46.8018 43.335 46.875 43.5221 46.875 43.75C46.875 43.9779 46.8018 44.165 46.6553 44.3115C46.5088 44.458 46.3216 44.5312 46.0938 44.5312Z" fill="white"/>
</svg>
