<svg width="11" height="14" viewBox="0 0 11 14" fill="none" xmlns="http://www.w3.org/2000/svg">
<g clip-path="url(#clip0_4140_614)">
<path d="M5.57812 0.177734C6.22526 0.177734 6.84505 0.282552 7.4375 0.492188C8.02995 0.710938 8.55176 1.01628 9.00293 1.4082C9.4541 1.80013 9.81641 2.26953 10.0898 2.81641C10.3633 3.3724 10.5 3.98763 10.5 4.66211C10.5 5.30013 10.418 5.93815 10.2539 6.57617C10.0898 7.22331 9.83464 7.80208 9.48828 8.3125C9.14193 8.82292 8.70443 9.24219 8.17578 9.57031C7.64714 9.88932 7.01823 10.0488 6.28906 10.0488C5.94271 10.0488 5.58268 9.96452 5.20898 9.7959C4.83529 9.62728 4.56641 9.38346 4.40234 9.06445C4.08333 10.2949 3.84863 11.154 3.69824 11.6416C3.54785 12.1292 3.13086 12.8424 2.44727 13.7812C2.37435 13.8086 2.33561 13.8223 2.33105 13.8223C2.3265 13.8223 2.30143 13.7949 2.25586 13.7402C2.22852 13.485 2.20117 13.2298 2.17383 12.9746C2.14648 12.7194 2.13281 12.4642 2.13281 12.209C2.13281 11.7897 2.17383 11.3294 2.25586 10.8281C2.33789 10.3359 2.44043 9.83464 2.56348 9.32422C2.68652 8.8138 2.81185 8.31706 2.93945 7.83398C3.07617 7.3418 3.1901 6.89062 3.28125 6.48047C3.18099 6.27083 3.11263 6.04525 3.07617 5.80371C3.03971 5.56217 3.02148 5.32747 3.02148 5.09961C3.02148 4.55273 3.15365 4.12435 3.41797 3.81445C3.68229 3.50456 3.97624 3.31543 4.2998 3.24707C4.62337 3.17871 4.91732 3.24023 5.18164 3.43164C5.45508 3.62305 5.5918 3.94206 5.5918 4.38867C5.5918 4.92643 5.47103 5.44824 5.22949 5.9541C4.98796 6.45996 4.86719 6.97266 4.86719 7.49219C4.86719 7.84766 4.99251 8.13704 5.24316 8.36035C5.49381 8.58366 5.78776 8.69531 6.125 8.69531C6.59896 8.69531 6.99544 8.54492 7.31445 8.24414C7.62435 7.94336 7.875 7.57878 8.06641 7.15039C8.25781 6.72201 8.39453 6.26628 8.47656 5.7832C8.55859 5.30013 8.59961 4.8763 8.59961 4.51172C8.59961 4.02865 8.51758 3.60026 8.35352 3.22656C8.18945 2.85286 7.96387 2.53841 7.67676 2.2832C7.38965 2.028 7.04557 1.83659 6.64453 1.70898C6.2526 1.58138 5.82422 1.51758 5.35938 1.51758C4.8125 1.51758 4.30664 1.60872 3.8418 1.79102C3.37695 1.97331 2.97135 2.23079 2.625 2.56348C2.27865 2.89616 2.00977 3.29492 1.81836 3.75977C1.61784 4.2155 1.51758 4.72135 1.51758 5.27734C1.51758 5.80599 1.62467 6.21387 1.83887 6.50098C2.05306 6.78809 2.16016 6.99544 2.16016 7.12305C2.16016 7.23242 2.1237 7.42155 2.05078 7.69043C1.97786 7.95931 1.87305 8.09375 1.73633 8.09375C1.4082 8.09375 1.03678 7.83171 0.62207 7.30762C0.207357 6.78353 0 6.03841 0 5.07227C0 4.31575 0.159505 3.63672 0.478516 3.03516C0.797526 2.42448 1.2168 1.9095 1.73633 1.49023C2.25586 1.07096 2.85286 0.747396 3.52734 0.519531C4.19271 0.291667 4.8763 0.177734 5.57812 0.177734Z" fill="white"/>
</g>
<defs>
<clipPath id="clip0_4140_614">
<rect width="10.5" height="14" fill="white" transform="matrix(1 0 0 -1 0 14)"/>
</clipPath>
</defs>
</svg>
