<svg width="12" height="10" viewBox="0 0 12 10" fill="none" xmlns="http://www.w3.org/2000/svg">
<g clip-path="url(#clip0_4140_628)">
<path d="M10.6152 0.185547C10.5632 0.0683594 10.4753 0.00651073 10.3516 0C10.2279 -0.00651073 10.1335 0.0488281 10.0684 0.166016C9.91862 0.426433 9.73958 0.664062 9.53125 0.878906C9.32292 1.08724 9.09342 1.26628 8.84277 1.41602C8.59212 1.56575 8.32357 1.67969 8.03711 1.75781C7.75065 1.83594 7.45117 1.875 7.13867 1.875H5.57617C5.06185 1.875 4.57682 1.97266 4.12109 2.16797C3.66536 2.36328 3.2666 2.63184 2.9248 2.97363C2.58301 3.31543 2.31445 3.71419 2.11914 4.16992C1.92383 4.61914 1.82617 5.10417 1.82617 5.625C1.82617 5.6901 1.82943 5.75684 1.83594 5.8252C1.84245 5.89355 1.84896 5.96029 1.85547 6.02539C2.16797 5.80404 2.51628 5.59245 2.90039 5.39062C3.27799 5.1888 3.69792 5.01302 4.16016 4.86328C4.6224 4.71354 5.12695 4.59635 5.67383 4.51172C6.2207 4.42057 6.81315 4.375 7.45117 4.375C7.53581 4.375 7.60905 4.40592 7.6709 4.46777C7.73275 4.52962 7.76367 4.60286 7.76367 4.6875C7.76367 4.77214 7.73275 4.84538 7.6709 4.90723C7.60905 4.96908 7.53581 5 7.45117 5C6.2207 5 5.16276 5.16276 4.27734 5.48828C3.39193 5.8138 2.65137 6.19954 2.05566 6.64551C1.45996 7.09147 0.996094 7.54883 0.664062 8.01758C0.338542 8.48633 0.117188 8.86068 0 9.14062C-0.0651042 9.29688 -0.0651042 9.45475 0 9.61426C0.0651042 9.77376 0.179036 9.88607 0.341797 9.95117C0.498047 10.0163 0.655924 10.0163 0.81543 9.95117C0.974935 9.88607 1.08724 9.77539 1.15234 9.61914C1.17188 9.58008 1.28743 9.37826 1.49902 9.01367C1.71061 8.64909 2.0638 8.25846 2.55859 7.8418C2.72135 8.05664 2.91341 8.26497 3.13477 8.4668C3.36263 8.66862 3.62142 8.84115 3.91113 8.98438C4.20085 9.1276 4.51823 9.23503 4.86328 9.30664C5.20833 9.37826 5.57943 9.39453 5.97656 9.35547C6.74479 9.29688 7.44792 9.0918 8.08594 8.74023C8.72396 8.38867 9.27409 7.92969 9.73633 7.36328C10.1986 6.79688 10.5599 6.13932 10.8203 5.39062C11.0742 4.64844 11.2012 3.85742 11.2012 3.01758C11.2012 2.52279 11.1507 2.03125 11.0498 1.54297C10.9489 1.05469 10.804 0.602214 10.6152 0.185547Z" fill="#A5A49A"/>
</g>
<defs>
<clipPath id="clip0_4140_628">
<rect width="11.25" height="10" fill="white" transform="matrix(1 0 0 -1 0 10)"/>
</clipPath>
</defs>
</svg>
