<svg width="11" height="14" viewBox="0 0 11 14" fill="none" xmlns="http://www.w3.org/2000/svg">
<path d="M5.57812 0C6.22526 0 6.84505 0.104817 7.4375 0.314453C8.02995 0.533203 8.55176 0.838542 9.00293 1.23047C9.4541 1.6224 9.81641 2.0918 10.0898 2.63867C10.3633 3.19466 10.5 3.8099 10.5 4.48438C10.5 5.1224 10.418 5.76042 10.2539 6.39844C10.0898 7.04557 9.83464 7.62435 9.48828 8.13477C9.14193 8.64518 8.70443 9.06445 8.17578 9.39258C7.64714 9.71159 7.01823 9.87109 6.28906 9.87109C5.94271 9.87109 5.58268 9.78678 5.20898 9.61816C4.83529 9.44954 4.56641 9.20573 4.40234 8.88672C4.08333 10.1172 3.84863 10.9762 3.69824 11.4639C3.54785 11.9515 3.13086 12.6647 2.44727 13.6035C2.37435 13.6309 2.33561 13.6445 2.33105 13.6445C2.3265 13.6445 2.30143 13.6172 2.25586 13.5625C2.22852 13.3073 2.20117 13.0521 2.17383 12.7969C2.14648 12.5417 2.13281 12.2865 2.13281 12.0312C2.13281 11.612 2.17383 11.1517 2.25586 10.6504C2.33789 10.1582 2.44043 9.6569 2.56348 9.14648C2.68652 8.63607 2.81185 8.13932 2.93945 7.65625C3.07617 7.16406 3.1901 6.71289 3.28125 6.30273C3.18099 6.0931 3.11263 5.86751 3.07617 5.62598C3.03971 5.38444 3.02148 5.14974 3.02148 4.92188C3.02148 4.375 3.15365 3.94661 3.41797 3.63672C3.68229 3.32682 3.97624 3.1377 4.2998 3.06934C4.62337 3.00098 4.91732 3.0625 5.18164 3.25391C5.45508 3.44531 5.5918 3.76432 5.5918 4.21094C5.5918 4.7487 5.47103 5.27051 5.22949 5.77637C4.98796 6.28223 4.86719 6.79492 4.86719 7.31445C4.86719 7.66992 4.99251 7.95931 5.24316 8.18262C5.49381 8.40592 5.78776 8.51758 6.125 8.51758C6.59896 8.51758 6.99544 8.36719 7.31445 8.06641C7.62435 7.76562 7.875 7.40104 8.06641 6.97266C8.25781 6.54427 8.39453 6.08854 8.47656 5.60547C8.55859 5.1224 8.59961 4.69857 8.59961 4.33398C8.59961 3.85091 8.51758 3.42253 8.35352 3.04883C8.18945 2.67513 7.96387 2.36068 7.67676 2.10547C7.38965 1.85026 7.04557 1.65885 6.64453 1.53125C6.2526 1.40365 5.82422 1.33984 5.35938 1.33984C4.8125 1.33984 4.30664 1.43099 3.8418 1.61328C3.37695 1.79557 2.97135 2.05306 2.625 2.38574C2.27865 2.71842 2.00977 3.11719 1.81836 3.58203C1.61784 4.03776 1.51758 4.54362 1.51758 5.09961C1.51758 5.62825 1.62467 6.03613 1.83887 6.32324C2.05306 6.61035 2.16016 6.81771 2.16016 6.94531C2.16016 7.05469 2.1237 7.24381 2.05078 7.5127C1.97786 7.78158 1.87305 7.91602 1.73633 7.91602C1.4082 7.91602 1.03678 7.65397 0.62207 7.12988C0.207357 6.60579 0 5.86068 0 4.89453C0 4.13802 0.159505 3.45898 0.478516 2.85742C0.797526 2.24675 1.2168 1.73177 1.73633 1.3125C2.25586 0.893229 2.85286 0.569661 3.52734 0.341797C4.19271 0.113933 4.8763 0 5.57812 0Z" fill="#1F1E17"/>
</svg>
