<svg width="24" height="24" viewBox="0 0 24 24" fill="none" xmlns="http://www.w3.org/2000/svg">
<g clip-path="url(#clip0_4138_1058)">
<path d="M23.7891 22.7812L17.9531 16.9453C18.7344 16.0391 19.3477 15.0156 19.793 13.875C20.2383 12.7344 20.4609 11.5234 20.4609 10.2422C20.4609 8.82031 20.1953 7.49219 19.6641 6.25781C19.1328 5.00781 18.4023 3.92188 17.4727 3C16.543 2.07812 15.4531 1.34375 14.2031 0.796875C12.9688 0.265625 11.6484 0 10.2422 0C8.82031 0 7.49219 0.265625 6.25781 0.796875C5.00781 1.34375 3.92188 2.07812 3 3C2.07812 3.92188 1.34375 5.00781 0.796875 6.25781C0.265625 7.49219 0 8.82031 0 10.2422C0 11.6484 0.265625 12.9688 0.796875 14.2031C1.34375 15.4531 2.07812 16.5391 3 17.4609C3.92188 18.3828 5.00781 19.1172 6.25781 19.6641C7.49219 20.1953 8.82031 20.4609 10.2422 20.4609C11.5234 20.4609 12.7344 20.2383 13.875 19.793C15.0156 19.3477 16.0391 18.7344 16.9453 17.9531L22.7812 23.7891C22.8438 23.8516 22.9219 23.9023 23.0156 23.9414C23.1094 23.9805 23.1953 24 23.2734 24C23.3672 24 23.4609 23.9844 23.5547 23.9531C23.6484 23.9219 23.7266 23.8672 23.7891 23.7891C23.9297 23.6484 24 23.4805 24 23.2852C24 23.0898 23.9297 22.9219 23.7891 22.7812ZM1.42969 10.2422C1.42969 9.02344 1.66406 7.88281 2.13281 6.82031C2.58594 5.74219 3.21094 4.80469 4.00781 4.00781C4.80469 3.21094 5.74219 2.58594 6.82031 2.13281C7.88281 1.66406 9.02344 1.42969 10.2422 1.42969C11.4453 1.42969 12.5859 1.66406 13.6641 2.13281C14.7266 2.58594 15.6562 3.21094 16.4531 4.00781C17.25 4.80469 17.875 5.74219 18.3281 6.82031C18.7969 7.88281 19.0312 9.02344 19.0312 10.2422C19.0312 11.4453 18.7969 12.5859 18.3281 13.6641C17.875 14.7266 17.25 15.6562 16.4531 16.4531C15.6562 17.25 14.7266 17.8828 13.6641 18.3516C12.5859 18.8047 11.4453 19.0312 10.2422 19.0312C9.02344 19.0312 7.88281 18.8047 6.82031 18.3516C5.74219 17.8828 4.80469 17.25 4.00781 16.4531C3.21094 15.6562 2.58594 14.7266 2.13281 13.6641C1.66406 12.5859 1.42969 11.4453 1.42969 10.2422Z" fill="#1F1E17"/>
</g>
<defs>
<clipPath id="clip0_4138_1058">
<rect width="24" height="24" fill="white" transform="matrix(1 0 0 -1 0 24)"/>
</clipPath>
</defs>
</svg>
