<svg width="15" height="15" viewBox="0 0 15 15" fill="none" xmlns="http://www.w3.org/2000/svg">
<path d="M13.6719 3.67188C14.0052 4.23438 14.2526 4.81771 14.4141 5.42188C14.5755 6.02604 14.6562 6.66146 14.6562 7.32812C14.6562 7.99479 14.5755 8.63021 14.4141 9.23438C14.2526 9.83854 14.0052 10.4219 13.6719 10.9844C13.3281 11.5573 12.9375 12.0625 12.5 12.5C12.0625 12.9375 11.5573 13.3281 10.9844 13.6719C10.4219 14.0052 9.83854 14.2526 9.23438 14.4141C8.63021 14.5755 7.99479 14.6562 7.32812 14.6562C6.66146 14.6562 6.02604 14.5755 5.42188 14.4141C4.81771 14.2526 4.23438 14.0052 3.67188 13.6719C3.09896 13.3281 2.59375 12.9375 2.15625 12.5C1.71875 12.0625 1.32812 11.5573 0.984375 10.9844C0.661458 10.4219 0.416667 9.83854 0.25 9.23438C0.0833333 8.63021 0 7.99479 0 7.32812C0 6.66146 0.0833333 6.02604 0.25 5.42188C0.416667 4.81771 0.661458 4.23438 0.984375 3.67188C1.31771 3.09896 1.70573 2.59375 2.14844 2.15625C2.59115 1.71875 3.09896 1.32812 3.67188 0.984375C4.23438 0.651042 4.81771 0.403646 5.42188 0.242188C6.02604 0.0807295 6.66146 0 7.32812 0C7.99479 0 8.63021 0.0807295 9.23438 0.242188C9.83854 0.403646 10.4219 0.651042 10.9844 0.984375C11.5573 1.32812 12.0625 1.71875 12.5 2.15625C12.9375 2.59375 13.3281 3.09896 13.6719 3.67188ZM5.59375 9.0625L3.85938 7.32812C3.73438 7.19271 3.56771 7.125 3.35938 7.125C3.15104 7.125 2.96354 7.19271 2.79688 7.32812C2.66146 7.46354 2.59375 7.63281 2.59375 7.83594C2.59375 8.03906 2.66146 8.22917 2.79688 8.40625L5.0625 10.6562C5.19792 10.7917 5.36458 10.8594 5.5625 10.8594C5.76042 10.8594 5.92708 10.7917 6.0625 10.6562L11.7969 5.125C11.9323 4.98958 12 4.82031 12 4.61719C12 4.41406 11.9323 4.22917 11.7969 4.0625C11.6615 3.92708 11.4896 3.85938 11.2812 3.85938C11.0729 3.85938 10.8906 3.92708 10.7344 4.0625L5.59375 9.0625Z" fill="#C5CE38"/>
</svg>
