<svg width="14" height="12" viewBox="0 0 14 12" fill="none" xmlns="http://www.w3.org/2000/svg">
<path d="M12.5645 2.83008C12.5645 2.89388 12.5645 2.95768 12.5645 3.02148C12.5645 3.08529 12.5645 3.14909 12.5645 3.21289C12.5645 4.16081 12.3867 5.11784 12.0312 6.08398C11.6758 7.05013 11.154 7.92513 10.4658 8.70898C9.77767 9.49284 8.92318 10.1354 7.90234 10.6367C6.89062 11.1289 5.72396 11.375 4.40234 11.375C4.0013 11.375 3.60482 11.3477 3.21289 11.293C2.82096 11.2292 2.44043 11.1426 2.07129 11.0332C1.70215 10.9238 1.3444 10.7917 0.998047 10.6367C0.651693 10.4727 0.31901 10.2904 0 10.0898C0.11849 10.099 0.234701 10.1058 0.348633 10.1104C0.462565 10.1149 0.578776 10.1172 0.697266 10.1172C1.36263 10.1172 1.99837 10.0101 2.60449 9.7959C3.21061 9.58171 3.75977 9.2832 4.25195 8.90039C3.62305 8.88216 3.06478 8.6862 2.57715 8.3125C2.08952 7.9388 1.75456 7.4694 1.57227 6.9043C1.66341 6.91341 1.75228 6.92253 1.83887 6.93164C1.92546 6.94076 2.01888 6.94531 2.11914 6.94531C2.24674 6.94531 2.37435 6.93848 2.50195 6.9248C2.62956 6.91113 2.7526 6.88607 2.87109 6.84961C2.21484 6.71289 1.66797 6.38477 1.23047 5.86523C0.792969 5.3457 0.574219 4.73503 0.574219 4.0332V4.00586C0.765625 4.10612 0.970703 4.18815 1.18945 4.25195C1.4082 4.31576 1.63151 4.35221 1.85938 4.36133C1.47656 4.10612 1.16895 3.76888 0.936523 3.34961C0.704102 2.93034 0.587891 2.47005 0.587891 1.96875C0.587891 1.70443 0.62207 1.4515 0.69043 1.20996C0.758789 0.968425 0.852214 0.742839 0.970703 0.533203C1.32617 0.961589 1.72266 1.35352 2.16016 1.70898C2.59766 2.06445 3.06706 2.37207 3.56836 2.63184C4.06966 2.8916 4.60286 3.09896 5.16797 3.25391C5.72396 3.40885 6.29818 3.5 6.89062 3.52734C6.8724 3.41797 6.85645 3.30859 6.84277 3.19922C6.8291 3.08984 6.82227 2.98047 6.82227 2.87109C6.82227 2.47917 6.89518 2.10547 7.04102 1.75C7.19596 1.40365 7.40332 1.10059 7.66309 0.84082C7.92285 0.581055 8.22591 0.378255 8.57227 0.232422C8.91862 0.0774736 9.29232 0 9.69336 0C10.1035 0 10.4886 0.0820312 10.8486 0.246094C11.2087 0.410156 11.5208 0.628906 11.7852 0.902344C12.1133 0.847656 12.43 0.761067 12.7354 0.642578C13.0407 0.524089 13.3301 0.382812 13.6035 0.21875C13.5033 0.546875 13.3438 0.847656 13.125 1.12109C12.9062 1.39453 12.6465 1.61784 12.3457 1.79102C12.6374 1.76367 12.9222 1.71126 13.2002 1.63379C13.4782 1.55632 13.7448 1.46289 14 1.35352C13.8086 1.63607 13.5898 1.90267 13.3438 2.15332C13.0977 2.40397 12.8379 2.62956 12.5645 2.83008Z" fill="#1F1E17"/>
</svg>
