<svg width="14" height="14" viewBox="0 0 14 14" fill="none" xmlns="http://www.w3.org/2000/svg">
<g clip-path="url(#clip0_4140_608)">
<path d="M12.5645 4.14258C12.5645 4.20638 12.5645 4.27018 12.5645 4.33398C12.5645 4.39779 12.5645 4.46159 12.5645 4.52539C12.5645 5.47331 12.3867 6.43034 12.0312 7.39648C11.6758 8.36263 11.154 9.23763 10.4658 10.0215C9.77767 10.8053 8.92318 11.4479 7.90234 11.9492C6.89062 12.4414 5.72396 12.6875 4.40234 12.6875C4.0013 12.6875 3.60482 12.6602 3.21289 12.6055C2.82096 12.5417 2.44043 12.4551 2.07129 12.3457C1.70215 12.2363 1.3444 12.1042 0.998047 11.9492C0.651693 11.7852 0.31901 11.6029 0 11.4023C0.11849 11.4115 0.234701 11.4183 0.348633 11.4229C0.462565 11.4274 0.578776 11.4297 0.697266 11.4297C1.36263 11.4297 1.99837 11.3226 2.60449 11.1084C3.21061 10.8942 3.75977 10.5957 4.25195 10.2129C3.62305 10.1947 3.06478 9.9987 2.57715 9.625C2.08952 9.2513 1.75456 8.7819 1.57227 8.2168C1.66341 8.22591 1.75228 8.23503 1.83887 8.24414C1.92546 8.25326 2.01888 8.25781 2.11914 8.25781C2.24674 8.25781 2.37435 8.25098 2.50195 8.2373C2.62956 8.22363 2.7526 8.19857 2.87109 8.16211C2.21484 8.02539 1.66797 7.69727 1.23047 7.17773C0.792969 6.6582 0.574219 6.04753 0.574219 5.3457V5.31836C0.765625 5.41862 0.970703 5.50065 1.18945 5.56445C1.4082 5.62826 1.63151 5.66471 1.85938 5.67383C1.47656 5.41862 1.16895 5.08138 0.936523 4.66211C0.704102 4.24284 0.587891 3.78255 0.587891 3.28125C0.587891 3.01693 0.62207 2.764 0.69043 2.52246C0.758789 2.28092 0.852214 2.05534 0.970703 1.8457C1.32617 2.27409 1.72266 2.66602 2.16016 3.02148C2.59766 3.37695 3.06706 3.68457 3.56836 3.94434C4.06966 4.2041 4.60286 4.41146 5.16797 4.56641C5.72396 4.72135 6.29818 4.8125 6.89062 4.83984C6.8724 4.73047 6.85645 4.62109 6.84277 4.51172C6.8291 4.40234 6.82227 4.29297 6.82227 4.18359C6.82227 3.79167 6.89518 3.41797 7.04102 3.0625C7.19596 2.71615 7.40332 2.41309 7.66309 2.15332C7.92285 1.89355 8.22591 1.69075 8.57227 1.54492C8.91862 1.38997 9.29232 1.3125 9.69336 1.3125C10.1035 1.3125 10.4886 1.39453 10.8486 1.55859C11.2087 1.72266 11.5208 1.94141 11.7852 2.21484C12.1133 2.16016 12.43 2.07357 12.7354 1.95508C13.0407 1.83659 13.3301 1.69531 13.6035 1.53125C13.5033 1.85938 13.3438 2.16016 13.125 2.43359C12.9062 2.70703 12.6465 2.93034 12.3457 3.10352C12.6374 3.07617 12.9222 3.02376 13.2002 2.94629C13.4782 2.86882 13.7448 2.77539 14 2.66602C13.8086 2.94857 13.5898 3.21517 13.3438 3.46582C13.0977 3.71647 12.8379 3.94206 12.5645 4.14258Z" fill="white"/>
</g>
<defs>
<clipPath id="clip0_4140_608">
<rect width="14" height="14" fill="white" transform="matrix(1 0 0 -1 0 14)"/>
</clipPath>
</defs>
</svg>
