<svg width="50" height="50" viewBox="0 0 50 50" fill="none" xmlns="http://www.w3.org/2000/svg">
<path d="M48.4375 28.0762C48.4375 26.3835 48.0469 24.7721 47.2656 23.2422C46.4844 21.7122 45.4102 20.4264 44.043 19.3848C43.75 19.1895 43.4326 19.0348 43.0908 18.9209C42.749 18.807 42.3991 18.75 42.041 18.75C41.6178 18.75 41.2028 18.8314 40.7959 18.9941C40.389 19.1569 40.0391 19.3848 39.7461 19.6777C39.681 19.6452 39.624 19.6045 39.5752 19.5557C39.5264 19.5068 39.4694 19.4661 39.4043 19.4336C39.209 19.2383 38.9811 19.0918 38.7207 18.9941C38.4603 18.8965 38.1999 18.8314 37.9395 18.7988L38.2812 15.0391C38.2812 14.974 38.2812 14.917 38.2812 14.8682C38.2812 14.8193 38.2812 14.7786 38.2812 14.7461C38.2812 13.8997 37.9883 13.1836 37.4023 12.5977C36.8164 12.0117 36.1003 11.7188 35.2539 11.7188H35.0586C34.2122 11.7188 33.4961 12.0117 32.9102 12.5977C32.3242 13.1836 32.0312 13.8997 32.0312 14.7461C32.0312 14.7786 32.0312 14.8193 32.0312 14.8682C32.0312 14.917 32.0312 14.974 32.0312 15.0391L32.373 18.7988C32.1452 18.8639 31.9092 18.9453 31.665 19.043C31.4209 19.1406 31.2012 19.2546 31.0059 19.3848C30.9408 19.4499 30.8757 19.515 30.8105 19.5801C30.7454 19.6452 30.6803 19.694 30.6152 19.7266C30.5827 19.694 30.5501 19.6615 30.5176 19.6289C30.485 19.5964 30.4362 19.5638 30.3711 19.5312C30.4036 19.401 30.4281 19.2708 30.4443 19.1406C30.4606 19.0104 30.4688 18.8802 30.4688 18.75C30.4688 18.2617 30.3955 17.7816 30.249 17.3096C30.1025 16.8376 29.8828 16.4062 29.5898 16.0156C29.8828 15.625 30.1025 15.1937 30.249 14.7217C30.3955 14.2497 30.4688 13.7695 30.4688 13.2812C30.4688 11.9466 29.9805 10.8154 29.0039 9.8877C28.0273 8.95996 26.8555 8.52864 25.4883 8.59375C25.2604 7.87761 24.8698 7.25911 24.3164 6.73828C23.763 6.21745 23.1283 5.85938 22.4121 5.66406C21.9238 5.07812 21.3379 4.63054 20.6543 4.32129C19.9707 4.01204 19.2383 3.8737 18.457 3.90625C18.1315 2.99479 17.57 2.24609 16.7725 1.66016C15.9749 1.07422 15.0716 0.78125 14.0625 0.78125C13.2161 0.78125 12.4349 0.99284 11.7188 1.41602C11.0026 1.83919 10.4329 2.40886 10.0098 3.125C8.9681 3.15755 8.04036 3.50749 7.22656 4.1748C6.41276 4.84212 5.87565 5.66406 5.61523 6.64062C4.41081 7.09636 3.43424 7.86133 2.68555 8.93555C1.93685 10.0098 1.5625 11.1979 1.5625 12.5C1.5625 13.5417 1.80664 14.5182 2.29492 15.4297C2.7832 16.3411 3.45052 17.0898 4.29688 17.6758C4.16667 17.9688 4.06901 18.2699 4.00391 18.5791C3.9388 18.8883 3.90625 19.2057 3.90625 19.5312C3.90625 20.2474 4.05273 20.9147 4.3457 21.5332C4.63867 22.1517 5.06185 22.6888 5.61523 23.1445C5.55013 23.3073 5.50944 23.4782 5.49316 23.6572C5.47689 23.8363 5.46875 24.0234 5.46875 24.2188C5.46875 25.4232 5.86751 26.4648 6.66504 27.3438C7.46256 28.2227 8.43099 28.7272 9.57031 28.8574L11.3281 33.6914C10.8724 34.0169 10.4574 34.3831 10.083 34.79C9.70866 35.1969 9.375 35.6445 9.08203 36.1328L5.0293 35.2051C4.93164 35.2051 4.84212 35.1969 4.76074 35.1807C4.67936 35.1644 4.60612 35.1562 4.54102 35.1562C3.92253 35.1562 3.40169 35.3678 2.97852 35.791C2.55534 36.2142 2.34375 36.735 2.34375 37.3535V37.6465C2.34375 37.7767 2.35189 37.8906 2.36816 37.9883C2.38444 38.0859 2.40885 38.1836 2.44141 38.2812H2.34375C1.69271 38.2812 1.13932 38.5091 0.683594 38.9648C0.227865 39.4206 0 39.974 0 40.625C0 41.276 0.227865 41.8294 0.683594 42.2852C1.13932 42.7409 1.69271 42.9688 2.34375 42.9688H2.44141C2.40885 43.0664 2.38444 43.1641 2.36816 43.2617C2.35189 43.3594 2.34375 43.4733 2.34375 43.6035V43.8965C2.34375 44.515 2.55534 45.0358 2.97852 45.459C3.40169 45.8822 3.92253 46.0938 4.54102 46.0938C4.60612 46.0938 4.67936 46.0856 4.76074 46.0693C4.84212 46.0531 4.93164 46.0449 5.0293 46.0449L9.08203 45.1172C9.86328 46.3542 10.8968 47.347 12.1826 48.0957C13.4684 48.8444 14.8763 49.2188 16.4062 49.2188H16.6016C16.7969 49.2188 17.0085 49.2106 17.2363 49.1943C17.4642 49.1781 17.6921 49.1536 17.9199 49.1211L44.6777 45.0195C45.7845 44.8242 46.6878 44.3197 47.3877 43.5059C48.0876 42.6921 48.4375 41.7318 48.4375 40.625C48.4375 39.7461 48.2015 38.9486 47.7295 38.2324C47.2575 37.5163 46.6471 36.9792 45.8984 36.6211C46.7122 35.6771 47.3389 34.611 47.7783 33.4229C48.2178 32.2347 48.4375 31.0059 48.4375 29.7363V28.0762ZM38.4766 20.6543C39.6484 21.5332 40.5599 22.6481 41.2109 23.999C41.862 25.3499 42.1875 26.7741 42.1875 28.2715V31.1035C42.1875 31.9173 42.0898 32.7067 41.8945 33.4717C41.6992 34.2367 41.4062 34.9772 41.0156 35.6934L34.7656 34.7168C34.6354 34.1634 34.5378 33.5938 34.4727 33.0078C34.4076 32.4219 34.375 31.8359 34.375 31.25V28.125C34.375 27.7018 34.3913 27.2949 34.4238 26.9043C34.4564 26.5137 34.5052 26.123 34.5703 25.7324C34.668 25.765 34.7656 25.7812 34.8633 25.7812C34.9609 25.7812 35.0586 25.7812 35.1562 25.7812C36.263 25.7812 37.1908 25.5615 37.9395 25.1221C38.6882 24.6826 39.0625 24.1211 39.0625 23.4375C39.0625 23.0794 38.9404 22.7376 38.6963 22.4121C38.4521 22.0866 38.1022 21.8262 37.6465 21.6309L37.793 20.3613C37.9232 20.3939 38.0452 20.4346 38.1592 20.4834C38.2731 20.5322 38.3789 20.5892 38.4766 20.6543ZM35.0586 13.2812H35.2539C35.6445 13.2812 35.9863 13.4277 36.2793 13.7207C36.5723 14.0137 36.7188 14.3555 36.7188 14.7461C36.7188 14.7786 36.7188 14.8031 36.7188 14.8193C36.7188 14.8356 36.7188 14.86 36.7188 14.8926L35.9863 22.6562L36.6211 22.8516C36.9466 22.9818 37.1745 23.1038 37.3047 23.2178C37.4349 23.3317 37.5 23.4049 37.5 23.4375C37.5 23.5352 37.2966 23.6898 36.8896 23.9014C36.4827 24.113 35.9049 24.2188 35.1562 24.2188C34.4076 24.2188 33.8298 24.113 33.4229 23.9014C33.0159 23.6898 32.8125 23.5352 32.8125 23.4375C32.8125 23.4049 32.8776 23.3317 33.0078 23.2178C33.138 23.1038 33.3659 22.9818 33.6914 22.8516L34.3262 22.6562L33.5938 14.8926C33.5938 14.86 33.5938 14.8356 33.5938 14.8193C33.5938 14.8031 33.5938 14.7786 33.5938 14.7461C33.5938 14.3555 33.7402 14.0137 34.0332 13.7207C34.3262 13.4277 34.668 13.2812 35.0586 13.2812ZM32.5195 20.3613L32.666 21.6309C32.2103 21.8262 31.8604 22.0866 31.6162 22.4121C31.3721 22.7376 31.25 23.0794 31.25 23.4375C31.25 23.8607 31.4128 24.2432 31.7383 24.585C32.0638 24.9268 32.5033 25.2116 33.0566 25.4395C32.9915 25.8626 32.9346 26.3021 32.8857 26.7578C32.8369 27.2135 32.8125 27.6693 32.8125 28.125V31.25C32.8125 31.8034 32.8369 32.3486 32.8857 32.8857C32.9346 33.4229 33.0078 33.9518 33.1055 34.4727L28.5156 33.7402C28.3854 33.3171 28.2878 32.8857 28.2227 32.4463C28.1576 32.0068 28.125 31.5592 28.125 31.1035V28.2715C28.125 26.7741 28.4587 25.3499 29.126 23.999C29.7933 22.6481 30.7292 21.5332 31.9336 20.6543C32.0312 20.5892 32.1289 20.5322 32.2266 20.4834C32.3242 20.4346 32.4219 20.3939 32.5195 20.3613ZM24.0723 33.1055C23.877 32.5521 23.7223 31.9987 23.6084 31.4453C23.4945 30.8919 23.4375 30.3223 23.4375 29.7363V28.0762C23.4375 26.6439 23.7712 25.2686 24.4385 23.9502C25.1058 22.6318 26.0254 21.5332 27.1973 20.6543C27.36 20.5566 27.5309 20.4753 27.71 20.4102C27.889 20.3451 28.0762 20.3125 28.2715 20.3125C28.4993 20.3125 28.7191 20.3613 28.9307 20.459C29.1423 20.5566 29.3294 20.6706 29.4922 20.8008C28.5482 21.8099 27.8239 22.9574 27.3193 24.2432C26.8148 25.529 26.5625 26.8717 26.5625 28.2715V31.1035C26.5625 31.5267 26.5869 31.9336 26.6357 32.3242C26.6846 32.7148 26.7578 33.1055 26.8555 33.4961L24.0723 33.1055ZM24.1699 9.61914L24.3164 10.4004L25.0977 10.2539C25.2279 10.2214 25.3499 10.1969 25.4639 10.1807C25.5778 10.1644 25.6836 10.1562 25.7812 10.1562C26.6276 10.1562 27.36 10.4655 27.9785 11.084C28.597 11.7025 28.9062 12.4349 28.9062 13.2812C28.9062 13.7044 28.833 14.1032 28.6865 14.4775C28.54 14.8519 28.3203 15.1855 28.0273 15.4785L27.4902 16.0156L28.0273 16.5527C28.3203 16.8457 28.54 17.1794 28.6865 17.5537C28.833 17.9281 28.9062 18.3268 28.9062 18.75C28.9062 18.75 28.9062 18.7581 28.9062 18.7744C28.9062 18.7907 28.9062 18.7988 28.9062 18.7988C28.8086 18.7988 28.7028 18.7907 28.5889 18.7744C28.4749 18.7581 28.3691 18.75 28.2715 18.75C27.9134 18.75 27.5635 18.807 27.2217 18.9209C26.8799 19.0348 26.5625 19.1895 26.2695 19.3848C25.5859 19.9056 24.9593 20.5078 24.3896 21.1914C23.82 21.875 23.3561 22.5911 22.998 23.3398C22.8353 22.8841 22.6807 22.4365 22.5342 21.9971C22.3877 21.5576 22.2331 21.1263 22.0703 20.7031C22.4284 18.8151 23.0876 17.3421 24.0479 16.2842C25.0081 15.2262 25.4883 14.681 25.4883 14.6484L25 14.0625L24.5117 13.4766C24.4466 13.5091 24.0072 13.9486 23.1934 14.7949C22.3796 15.6413 21.6797 16.8294 21.0938 18.3594C20.2799 16.5039 19.5475 15.0146 18.8965 13.8916C18.2454 12.7686 17.8874 12.1582 17.8223 12.0605L16.5527 12.9395C16.5527 12.9395 16.805 13.3789 17.3096 14.2578C17.8141 15.1367 18.4245 16.3249 19.1406 17.8223C17.9688 17.3665 16.8376 17.1468 15.7471 17.1631C14.6566 17.1794 14.0625 17.1875 13.9648 17.1875L14.1602 18.75C14.7461 18.6849 15.7064 18.7256 17.041 18.8721C18.3757 19.0186 19.4336 19.4824 20.2148 20.2637C20.4753 20.9473 20.7357 21.6553 20.9961 22.3877C21.2565 23.1201 21.5169 23.877 21.7773 24.6582C20.5729 24.0723 19.3929 23.7223 18.2373 23.6084C17.0817 23.4945 16.4714 23.4375 16.4062 23.4375V25C16.4388 25 17.1224 25.0732 18.457 25.2197C19.7917 25.3662 20.9635 25.8464 21.9727 26.6602C21.9401 26.888 21.9157 27.124 21.8994 27.3682C21.8831 27.6123 21.875 27.8483 21.875 28.0762V29.7363C21.875 30.2572 21.9157 30.778 21.9971 31.2988C22.0785 31.8197 22.2005 32.3242 22.3633 32.8125L17.9199 32.1289C17.7897 32.1289 17.6676 32.1208 17.5537 32.1045C17.4398 32.0882 17.3177 32.0638 17.1875 32.0312C16.3411 32.0312 15.6087 31.7301 14.9902 31.1279C14.3717 30.5257 14.0625 29.7852 14.0625 28.9062C14.0625 28.7109 14.0788 28.5238 14.1113 28.3447C14.1439 28.1657 14.1927 27.9785 14.2578 27.7832L14.502 27.1973L13.9648 26.8555C13.5091 26.5625 13.151 26.18 12.8906 25.708C12.6302 25.236 12.5 24.7396 12.5 24.2188C12.5 23.9258 12.5407 23.6328 12.6221 23.3398C12.7035 23.0469 12.8418 22.7702 13.0371 22.5098L13.5254 21.7773L12.7441 21.3867C11.9303 20.9635 11.2956 20.3776 10.8398 19.6289C10.3841 18.8802 10.1562 18.0664 10.1562 17.1875C10.1562 16.1458 10.4736 15.21 11.1084 14.3799C11.7432 13.5498 12.5651 12.9883 13.5742 12.6953L14.0625 12.5488L14.1113 12.0605C14.209 11.2793 14.5508 10.6364 15.1367 10.1318C15.7227 9.62728 16.4062 9.375 17.1875 9.375C17.1875 9.375 17.1956 9.375 17.2119 9.375C17.2282 9.375 17.2526 9.375 17.2852 9.375C17.3177 9.375 17.3421 9.38314 17.3584 9.39941C17.3747 9.41569 17.3991 9.42383 17.4316 9.42383L18.0176 9.47266L18.2129 8.93555C18.4733 8.34961 18.8639 7.88574 19.3848 7.54395C19.9056 7.20215 20.4753 7.03125 21.0938 7.03125C21.8424 7.03125 22.5098 7.27539 23.0957 7.76367C23.6816 8.25195 24.0397 8.87044 24.1699 9.61914ZM10.6934 27.3438H10.1562C9.3099 27.3438 8.57747 27.0345 7.95898 26.416C7.34049 25.7975 7.03125 25.0651 7.03125 24.2188C7.03125 24.0234 7.04753 23.8363 7.08008 23.6572C7.11263 23.4782 7.16146 23.291 7.22656 23.0957L7.4707 22.5098L6.93359 22.168C6.47786 21.875 6.11979 21.4925 5.85938 21.0205C5.59896 20.5485 5.46875 20.0521 5.46875 19.5312C5.46875 19.2383 5.50944 18.9453 5.59082 18.6523C5.6722 18.3594 5.81055 18.0827 6.00586 17.8223L6.49414 17.0898L5.71289 16.6992C4.89909 16.276 4.26432 15.6901 3.80859 14.9414C3.35286 14.1927 3.125 13.3789 3.125 12.5C3.125 11.4583 3.44238 10.5225 4.07715 9.69238C4.71191 8.8623 5.53385 8.30078 6.54297 8.00781L7.03125 7.86133L7.08008 7.37305C7.17773 6.5918 7.51953 5.94889 8.10547 5.44434C8.69141 4.93978 9.375 4.6875 10.1562 4.6875C10.1562 4.6875 10.1644 4.6875 10.1807 4.6875C10.1969 4.6875 10.2214 4.6875 10.2539 4.6875C10.2865 4.6875 10.3109 4.69564 10.3271 4.71191C10.3434 4.72819 10.3678 4.73633 10.4004 4.73633L10.9863 4.78516L11.1816 4.24805C11.4421 3.66211 11.8327 3.19824 12.3535 2.85645C12.8743 2.51465 13.444 2.34375 14.0625 2.34375C14.8112 2.34375 15.4785 2.58789 16.0645 3.07617C16.6504 3.56445 17.0085 4.18294 17.1387 4.93164L17.2852 5.71289L18.0664 5.56641C18.1966 5.53386 18.3187 5.50944 18.4326 5.49316C18.5465 5.47689 18.6523 5.46875 18.75 5.46875C18.9453 5.46875 19.1243 5.48503 19.2871 5.51758C19.4499 5.55013 19.6126 5.59896 19.7754 5.66406C19.1895 5.82682 18.6605 6.09538 18.1885 6.46973C17.7165 6.84407 17.334 7.29167 17.041 7.8125C15.9993 7.84505 15.0716 8.19499 14.2578 8.8623C13.444 9.52962 12.9069 10.3516 12.6465 11.3281C11.4421 11.7839 10.4655 12.5488 9.7168 13.623C8.9681 14.6973 8.59375 15.8854 8.59375 17.1875C8.59375 18.2292 8.83789 19.2057 9.32617 20.1172C9.81445 21.0286 10.4818 21.7773 11.3281 22.3633C11.1979 22.6562 11.1003 22.9574 11.0352 23.2666C10.9701 23.5758 10.9375 23.8932 10.9375 24.2188C10.9375 24.9349 11.084 25.6022 11.377 26.2207C11.6699 26.8392 12.0931 27.3763 12.6465 27.832C12.5814 27.9948 12.5407 28.1657 12.5244 28.3447C12.5081 28.5238 12.5 28.7109 12.5 28.9062C12.5 29.5898 12.6383 30.2327 12.915 30.835C13.1917 31.4372 13.5579 31.9499 14.0137 32.373C13.7858 32.4382 13.5579 32.5114 13.3301 32.5928C13.1022 32.6742 12.8906 32.7799 12.6953 32.9102L10.6934 27.3438ZM3.90625 37.6465V37.3535C3.90625 37.1582 3.98763 36.9954 4.15039 36.8652C4.31315 36.735 4.49219 36.6862 4.6875 36.7188L8.39844 37.5488C8.33333 37.679 8.2845 37.8011 8.25195 37.915C8.2194 38.029 8.18685 38.151 8.1543 38.2812H4.54102C4.37826 38.2812 4.23177 38.2161 4.10156 38.0859C3.97135 37.9557 3.90625 37.8092 3.90625 37.6465ZM1.5625 40.625C1.5625 40.3971 1.63574 40.21 1.78223 40.0635C1.92871 39.917 2.11589 39.8438 2.34375 39.8438H7.86133C7.82878 39.974 7.8125 40.1042 7.8125 40.2344C7.8125 40.3646 7.8125 40.4948 7.8125 40.625C7.8125 40.7552 7.8125 40.8854 7.8125 41.0156C7.8125 41.1458 7.82878 41.276 7.86133 41.4062H2.34375C2.11589 41.4062 1.92871 41.333 1.78223 41.1865C1.63574 41.04 1.5625 40.8529 1.5625 40.625ZM4.6875 44.5312C4.49219 44.5638 4.31315 44.515 4.15039 44.3848C3.98763 44.2546 3.90625 44.0918 3.90625 43.8965V43.6035C3.90625 43.4408 3.97135 43.2943 4.10156 43.1641C4.23177 43.0339 4.37826 42.9688 4.54102 42.9688H8.1543C8.18685 43.099 8.2194 43.221 8.25195 43.335C8.2845 43.4489 8.33333 43.571 8.39844 43.7012L4.6875 44.5312ZM46.875 40.625C46.875 41.3411 46.6471 41.9678 46.1914 42.5049C45.7357 43.042 45.1497 43.3594 44.4336 43.457L17.6758 47.5586C17.4805 47.5911 17.2933 47.6156 17.1143 47.6318C16.9352 47.6481 16.7643 47.6562 16.6016 47.6562H16.4062C14.4531 47.6562 12.793 46.9727 11.4258 45.6055C10.0586 44.2383 9.375 42.5781 9.375 40.625C9.375 38.6719 10.0586 37.0117 11.4258 35.6445C12.793 34.2773 14.4531 33.5938 16.4062 33.5938H16.6016C16.7643 33.5938 16.9352 33.6019 17.1143 33.6182C17.2933 33.6344 17.4805 33.6589 17.6758 33.6914L44.4336 37.793C45.1497 37.8906 45.7357 38.208 46.1914 38.7451C46.6471 39.2822 46.875 39.9089 46.875 40.625ZM46.875 29.7363C46.875 30.9408 46.639 32.0964 46.167 33.2031C45.695 34.3099 45.0358 35.3027 44.1895 36.1816L42.6758 35.9375C43.0339 35.1888 43.3024 34.4076 43.4814 33.5938C43.6605 32.7799 43.75 31.9499 43.75 31.1035V28.2715C43.75 26.8717 43.4977 25.529 42.9932 24.2432C42.4886 22.9574 41.7806 21.8099 40.8691 20.8008C41.0319 20.638 41.2109 20.516 41.4062 20.4346C41.6016 20.3532 41.8132 20.3125 42.041 20.3125C42.2363 20.3125 42.4235 20.3451 42.6025 20.4102C42.7816 20.4753 42.9525 20.5566 43.1152 20.6543C44.2871 21.5332 45.2067 22.6318 45.874 23.9502C46.5413 25.2686 46.875 26.6439 46.875 28.0762V29.7363ZM15.625 36.7188H17.1875V44.5312H15.625V36.7188ZM21.875 36.7188H23.4375V44.5312H21.875V36.7188ZM28.125 36.7188H29.6875V44.5312H28.125V36.7188ZM34.375 38.2812H35.9375V42.9688H34.375V38.2812ZM40.625 39.0625H42.1875V42.1875H40.625V39.0625Z" fill="white"/>
</svg>
